  0
SECTION
  2
HEADER
  9
$ACADVER
  1
AC2.10
  0
ENDSEC
  0
SECTION
  2
TABLES
  0
TABLE
  2
LAYER
 70
     8
  0
LAYER
  2
0
 62
     7
 70
0
  6
CONTINUOUS
  0
LAYER
  2
1
 62
     1
 70
0
  6
CONTINUOUS
  0
LAYER
  2
2
 62
     2
 70
0
  6
CONTINUOUS
  0
LAYER
  2
3
 62
     3
 70
0
  6
CONTINUOUS
  0
LAYER
  2
4
 62
     4
 70
0
  6
CONTINUOUS
  0
LAYER
  2
5
 62
     5
 70
0
  6
CONTINUOUS
  0
LAYER
  2
6
 62
     6
 70
0
  6
CONTINUOUS
  0
LAYER
  2
7
 62
     7
 70
0
  6
CONTINUOUS
  0
ENDTAB
  0
TABLE
  2
STYLE
 70
     1
  0
STYLE
 70
     0
  2
STANDARD
  3
TXT
 40
0.00
 41
1.00
 42
1.00
 50
0.00
 71
     0
  0
ENDTAB
  0
ENDSEC
  0
SECTION
  2
BLOCKS
  0
BLOCK
  8
0
  2
EPAD
 70
0
 10
0.0
 20
0.0
  0
POLYLINE
  8
0
 66
1
 70
1
 40
0.5
 41
0.5
  0
VERTEX
  8
0
 10
-0.25
 20
0.0
 42
1.0
  0
VERTEX
  8
0
 10
0.25
 20
0.0
 42
1.0
  0
SEQEND
  8
0
  0
ENDBLK
  8
0
  0
BLOCK
  8
0
  2
RPAD
 70
0
 10
0.0
 20
0.0
  0
TRACE
  8
0
 10
-0.5
 20
-0.5
 11
-0.5
 21
0.5
 12
0.5
 22
-0.5
 13
0.5
 23
0.5
  0
ENDBLK
  8
0
  0
ENDSEC
0
SECTION
2
ENTITIES
0
POLYLINE
8
0
66
1
40
0.016000
41
0.016000
0
VERTEX
8
0
10
3.000000
20
2.500000
0
VERTEX
8
0
10
3.000000
20
2.400000
0
SEQEND
8
0
0
POLYLINE
8
0
66
1
40
0.016000
41
0.016000
0
VERTEX
8
0
10
1.600000
20
2.500000
0
VERTEX
8
0
10
1.600000
20
2.400000
0
VERTEX
8
0
10
1.500000
20
2.400000
0
SEQEND
8
0
0
POLYLINE
8
0
66
1
40
0.016000
41
0.016000
0
VERTEX
8
0
10
1.400000
20
2.500000
0
VERTEX
8
0
10
1.500000
20
2.400000
0
SEQEND
8
0
0
POLYLINE
8
0
66
1
40
0.016000
41
0.016000
0
VERTEX
8
0
10
0.500000
20
2.400000
0
VERTEX
8
0
10
-0.200000
20
2.400000
0
SEQEND
8
0
0
POLYLINE
8
0
66
1
40
0.016000
41
0.016000
0
VERTEX
8
0
10
-0.200000
20
2.300000
0
VERTEX
8
0
10
1.700000
20
2.300000
0
SEQEND
8
0
0
POLYLINE
8
0
66
1
40
0.016000
41
0.016000
0
VERTEX
8
0
10
2.700000
20
2.600000
0
VERTEX
8
0
10
2.700000
20
2.400000
0
SEQEND
8
0
0
POLYLINE
8
0
66
1
40
0.016000
41
0.016000
0
VERTEX
8
0
10
3.000000
20
2.400000
0
VERTEX
8
0
10
2.700000
20
2.400000
0
SEQEND
8
0
0
POLYLINE
8
0
66
1
40
0.016000
41
0.016000
0
VERTEX
8
0
10
1.700000
20
1.700000
0
VERTEX
8
0
10
1.700000
20
1.900000
0
SEQEND
8
0
0
POLYLINE
8
0
66
1
40
0.016000
41
0.016000
0
VERTEX
8
0
10
1.700000
20
2.500000
0
VERTEX
8
0
10
1.700000
20
1.900000
0
SEQEND
8
0
0
POLYLINE
8
0
66
1
40
0.016000
41
0.016000
0
VERTEX
8
0
10
1.600000
20
1.900000
0
VERTEX
8
0
10
1.700000
20
1.900000
0
SEQEND
8
0
0
POLYLINE
8
0
66
1
40
0.016000
41
0.016000
0
VERTEX
8
0
10
1.500000
20
2.400000
0
VERTEX
8
0
10
1.100000
20
2.400000
0
SEQEND
8
0
0
POLYLINE
8
0
66
1
40
0.016000
41
0.016000
0
VERTEX
8
0
10
1.000000
20
2.400000
0
VERTEX
8
0
10
1.100000
20
2.400000
0
SEQEND
8
0
0
POLYLINE
8
0
66
1
40
0.016000
41
0.016000
0
VERTEX
8
0
10
1.200000
20
1.900000
0
VERTEX
8
0
10
1.100000
20
1.900000
0
VERTEX
8
0
10
1.100000
20
2.400000
0
SEQEND
8
0
0
POLYLINE
8
0
66
1
40
0.016000
41
0.016000
0
VERTEX
8
0
10
3.100000
20
1.700000
0
VERTEX
8
0
10
3.100000
20
1.900000
0
SEQEND
8
0
0
POLYLINE
8
0
66
1
40
0.016000
41
0.016000
0
VERTEX
8
0
10
3.100000
20
2.500000
0
VERTEX
8
0
10
3.100000
20
1.900000
0
SEQEND
8
0
0
POLYLINE
8
0
66
1
40
0.016000
41
0.016000
0
VERTEX
8
0
10
2.800000
20
1.900000
0
VERTEX
8
0
10
3.100000
20
1.900000
0
SEQEND
8
0
0
POLYLINE
8
0
66
1
40
0.016000
41
0.016000
0
VERTEX
8
0
10
2.200000
20
2.300000
0
VERTEX
8
0
10
2.700000
20
2.300000
0
SEQEND
8
0
0
POLYLINE
8
0
66
1
40
0.016000
41
0.016000
0
VERTEX
8
0
10
2.700000
20
2.400000
0
VERTEX
8
0
10
2.700000
20
2.300000
0
SEQEND
8
0
0
POLYLINE
8
0
66
1
40
0.016000
41
0.016000
0
VERTEX
8
0
10
2.400000
20
1.900000
0
VERTEX
8
0
10
2.300000
20
1.900000
0
VERTEX
8
0
10
2.300000
20
2.200000
0
VERTEX
8
0
10
2.700000
20
2.200000
0
VERTEX
8
0
10
2.700000
20
2.300000
0
SEQEND
8
0
0
POLYLINE
8
0
66
1
40
0.016000
41
0.016000
0
VERTEX
8
0
10
-3.500000
20
2.700000
0
VERTEX
8
0
10
-3.500000
20
2.200000
0
SEQEND
8
0
0
POLYLINE
8
0
66
1
40
0.016000
41
0.016000
0
VERTEX
8
0
10
-3.900000
20
2.200000
0
VERTEX
8
0
10
-3.500000
20
2.200000
0
SEQEND
8
0
0
POLYLINE
8
0
66
1
40
0.016000
41
0.016000
0
VERTEX
8
0
10
-3.900000
20
1.800000
0
VERTEX
8
0
10
-3.300000
20
1.800000
0
SEQEND
8
0
0
POLYLINE
8
0
66
1
40
0.016000
41
0.016000
0
VERTEX
8
0
10
-3.300000
20
2.700000
0
VERTEX
8
0
10
-3.300000
20
1.800000
0
SEQEND
8
0
0
POLYLINE
8
0
66
1
40
0.016000
41
0.016000
0
VERTEX
8
0
10
-3.100000
20
2.700000
0
VERTEX
8
0
10
-3.100000
20
1.400000
0
SEQEND
8
0
0
POLYLINE
8
0
66
1
40
0.016000
41
0.016000
0
VERTEX
8
0
10
-3.900000
20
1.400000
0
VERTEX
8
0
10
-3.100000
20
1.400000
0
SEQEND
8
0
0
POLYLINE
8
0
66
1
40
0.016000
41
0.016000
0
VERTEX
8
0
10
-3.400000
20
2.700000
0
VERTEX
8
0
10
-3.400000
20
2.600000
0
VERTEX
8
0
10
-3.200000
20
2.600000
0
SEQEND
8
0
0
POLYLINE
8
0
66
1
40
0.016000
41
0.016000
0
VERTEX
8
0
10
-3.000000
20
2.700000
0
VERTEX
8
0
10
-3.000000
20
2.600000
0
VERTEX
8
0
10
-3.200000
20
2.600000
0
SEQEND
8
0
0
POLYLINE
8
0
66
1
40
0.016000
41
0.016000
0
VERTEX
8
0
10
-3.200000
20
2.700000
0
VERTEX
8
0
10
-3.200000
20
2.600000
0
VERTEX
8
0
10
-3.200000
20
1.200000
0
SEQEND
8
0
0
POLYLINE
8
0
66
1
40
0.016000
41
0.016000
0
VERTEX
8
0
10
-1.600000
20
2.200000
0
VERTEX
8
0
10
-2.700000
20
2.200000
0
SEQEND
8
0
0
POLYLINE
8
0
66
1
40
0.016000
41
0.016000
0
VERTEX
8
0
10
-3.500000
20
2.200000
0
VERTEX
8
0
10
-2.700000
20
2.200000
0
SEQEND
8
0
0
POLYLINE
8
0
66
1
40
0.016000
41
0.016000
0
VERTEX
8
0
10
-2.700000
20
1.200000
0
VERTEX
8
0
10
-2.700000
20
2.200000
0
SEQEND
8
0
0
POLYLINE
8
0
66
1
40
0.016000
41
0.016000
0
VERTEX
8
0
10
-3.300000
20
1.800000
0
VERTEX
8
0
10
-2.400000
20
1.800000
0
SEQEND
8
0
0
POLYLINE
8
0
66
1
40
0.016000
41
0.016000
0
VERTEX
8
0
10
-1.600000
20
2.300000
0
VERTEX
8
0
10
-1.700000
20
2.300000
0
VERTEX
8
0
10
-2.400000
20
2.000000
0
VERTEX
8
0
10
-2.400000
20
1.800000
0
SEQEND
8
0
0
POLYLINE
8
0
66
1
40
0.016000
41
0.016000
0
VERTEX
8
0
10
-2.400000
20
1.200000
0
VERTEX
8
0
10
-2.400000
20
1.800000
0
SEQEND
8
0
0
POLYLINE
8
0
66
1
40
0.016000
41
0.016000
0
VERTEX
8
0
10
-0.200000
20
2.200000
0
VERTEX
8
0
10
-0.100000
20
2.200000
0
VERTEX
8
0
10
-0.100000
20
1.400000
0
VERTEX
8
0
10
-2.100000
20
1.400000
0
SEQEND
8
0
0
POLYLINE
8
0
66
1
40
0.016000
41
0.016000
0
VERTEX
8
0
10
-3.100000
20
1.400000
0
VERTEX
8
0
10
-2.100000
20
1.400000
0
SEQEND
8
0
0
POLYLINE
8
0
66
1
40
0.016000
41
0.016000
0
VERTEX
8
0
10
-2.100000
20
1.200000
0
VERTEX
8
0
10
-2.100000
20
1.400000
0
SEQEND
8
0
0
POLYLINE
8
0
66
1
40
0.016000
41
0.016000
0
VERTEX
8
0
10
-2.400000
20
0.800000
0
VERTEX
8
0
10
-2.400000
20
0.300000
0
SEQEND
8
0
0
POLYLINE
8
0
66
1
40
0.016000
41
0.016000
0
VERTEX
8
0
10
-2.400000
20
0.200000
0
VERTEX
8
0
10
-2.400000
20
0.300000
0
SEQEND
8
0
0
POLYLINE
8
0
66
1
40
0.016000
41
0.016000
0
VERTEX
8
0
10
-2.100000
20
0.800000
0
VERTEX
8
0
10
-2.100000
20
0.300000
0
VERTEX
8
0
10
-2.400000
20
0.300000
0
SEQEND
8
0
0
POLYLINE
8
0
66
1
40
0.016000
41
0.016000
0
VERTEX
8
0
10
-2.700000
20
0.800000
0
VERTEX
8
0
10
-2.700000
20
0.300000
0
VERTEX
8
0
10
-2.400000
20
0.300000
0
SEQEND
8
0
0
POLYLINE
8
0
66
1
40
0.016000
41
0.016000
0
VERTEX
8
0
10
-4.400000
20
2.200000
0
VERTEX
8
0
10
-4.900000
20
2.200000
0
SEQEND
8
0
0
POLYLINE
8
0
66
1
40
0.016000
41
0.016000
0
VERTEX
8
0
10
-4.900000
20
2.800000
0
VERTEX
8
0
10
-4.900000
20
2.200000
0
SEQEND
8
0
0
POLYLINE
8
0
66
1
40
0.016000
41
0.016000
0
VERTEX
8
0
10
-4.400000
20
1.800000
0
VERTEX
8
0
10
-4.900000
20
1.800000
0
SEQEND
8
0
0
POLYLINE
8
0
66
1
40
0.016000
41
0.016000
0
VERTEX
8
0
10
-4.900000
20
2.200000
0
VERTEX
8
0
10
-4.900000
20
1.800000
0
SEQEND
8
0
0
POLYLINE
8
0
66
1
40
0.016000
41
0.016000
0
VERTEX
8
0
10
-4.400000
20
1.400000
0
VERTEX
8
0
10
-4.900000
20
1.400000
0
VERTEX
8
0
10
-4.900000
20
1.800000
0
SEQEND
8
0
0
POLYLINE
8
0
66
1
40
0.016000
41
0.016000
0
VERTEX
8
0
10
-0.200000
20
2.100000
0
VERTEX
8
0
10
0.100000
20
2.100000
0
SEQEND
8
0
0
POLYLINE
8
0
66
1
40
0.016000
41
0.016000
0
VERTEX
8
0
10
-1.600000
20
2.400000
0
VERTEX
8
0
10
-2.400000
20
2.400000
0
VERTEX
8
0
10
-2.400000
20
2.700000
0
SEQEND
8
0
0
POLYLINE
8
0
66
1
40
0.016000
41
0.016000
0
VERTEX
8
0
10
-1.600000
20
2.600000
0
VERTEX
8
0
10
-2.300000
20
2.600000
0
VERTEX
8
0
10
-2.300000
20
2.700000
0
SEQEND
8
0
0
POLYLINE
8
0
66
1
40
0.016000
41
0.016000
0
VERTEX
8
0
10
-1.600000
20
2.700000
0
VERTEX
8
0
10
-1.700000
20
2.700000
0
VERTEX
8
0
10
-1.700000
20
2.500000
0
VERTEX
8
0
10
-2.200000
20
2.500000
0
VERTEX
8
0
10
-2.200000
20
2.700000
0
SEQEND
8
0
0
POLYLINE
8
0
66
1
40
0.016000
41
0.016000
0
VERTEX
8
0
10
-2.500000
20
2.700000
0
VERTEX
8
0
10
-2.500000
20
2.600000
0
VERTEX
8
0
10
-2.800000
20
2.600000
0
VERTEX
8
0
10
-2.800000
20
2.700000
0
SEQEND
8
0
0
POLYLINE
8
0
66
1
40
0.016000
41
0.016000
0
VERTEX
8
0
10
-2.100000
20
2.700000
0
VERTEX
8
0
10
-2.100000
20
2.300000
0
VERTEX
8
0
10
-1.800000
20
2.300000
0
VERTEX
8
0
10
-1.800000
20
3.200000
0
VERTEX
8
0
10
-1.600000
20
3.200000
0
VERTEX
8
0
10
-1.600000
20
3.100000
0
SEQEND
8
0
0
POLYLINE
8
0
66
1
40
0.016000
41
0.016000
0
VERTEX
8
0
10
-0.100000
20
-2.000000
0
VERTEX
8
0
10
-0.300000
20
-2.000000
0
SEQEND
8
0
0
POLYLINE
8
0
66
1
40
0.016000
41
0.016000
0
VERTEX
8
0
10
1.200000
20
-2.000000
0
VERTEX
8
0
10
1.100000
20
-2.000000
0
VERTEX
8
0
10
1.100000
20
-2.500000
0
VERTEX
8
0
10
-0.300000
20
-2.500000
0
SEQEND
8
0
0
POLYLINE
8
0
66
1
40
0.016000
41
0.016000
0
VERTEX
8
0
10
1.500000
20
-2.300000
0
VERTEX
8
0
10
1.500000
20
-2.900000
0
VERTEX
8
0
10
0.900000
20
-2.900000
0
SEQEND
8
0
0
POLYLINE
8
0
66
1
40
0.016000
41
0.016000
0
VERTEX
8
0
10
0.200000
20
-2.300000
0
VERTEX
8
0
10
0.200000
20
-2.900000
0
VERTEX
8
0
10
0.900000
20
-2.900000
0
SEQEND
8
0
0
POLYLINE
8
0
66
1
40
0.016000
41
0.016000
0
VERTEX
8
0
10
0.900000
20
-3.100000
0
VERTEX
8
0
10
0.900000
20
-2.900000
0
SEQEND
8
0
0
POLYLINE
8
0
66
1
40
0.016000
41
0.016000
0
VERTEX
8
0
10
-0.800000
20
-2.000000
0
VERTEX
8
0
10
-1.000000
20
-2.000000
0
SEQEND
8
0
0
POLYLINE
8
0
66
1
40
0.016000
41
0.016000
0
VERTEX
8
0
10
-0.800000
20
-2.500000
0
VERTEX
8
0
10
-1.000000
20
-2.500000
0
SEQEND
8
0
0
POLYLINE
8
0
66
1
40
0.016000
41
0.016000
0
VERTEX
8
0
10
3.100000
20
-1.400000
0
VERTEX
8
0
10
3.100000
20
-1.300000
0
SEQEND
8
0
0
POLYLINE
8
0
66
1
40
0.016000
41
0.016000
0
VERTEX
8
0
10
3.100000
20
-2.400000
0
VERTEX
8
0
10
3.100000
20
-2.300000
0
VERTEX
8
0
10
3.600000
20
-2.300000
0
VERTEX
8
0
10
3.600000
20
-1.300000
0
VERTEX
8
0
10
3.100000
20
-1.300000
0
SEQEND
8
0
0
POLYLINE
8
0
66
1
40
0.016000
41
0.016000
0
VERTEX
8
0
10
0.800000
20
-0.900000
0
VERTEX
8
0
10
0.800000
20
-0.800000
0
VERTEX
8
0
10
1.800000
20
-0.800000
0
SEQEND
8
0
0
POLYLINE
8
0
66
1
40
0.016000
41
0.016000
0
VERTEX
8
0
10
1.800000
20
-0.900000
0
VERTEX
8
0
10
1.800000
20
-0.800000
0
SEQEND
8
0
0
POLYLINE
8
0
66
1
40
0.016000
41
0.016000
0
VERTEX
8
0
10
3.100000
20
-1.300000
0
VERTEX
8
0
10
2.100000
20
-1.300000
0
VERTEX
8
0
10
2.100000
20
-0.800000
0
VERTEX
8
0
10
1.800000
20
-0.800000
0
SEQEND
8
0
0
POLYLINE
8
0
66
1
40
0.016000
41
0.016000
0
VERTEX
8
0
10
1.500000
20
-1.700000
0
VERTEX
8
0
10
1.500000
20
-1.500000
0
VERTEX
8
0
10
1.800000
20
-1.500000
0
SEQEND
8
0
0
POLYLINE
8
0
66
1
40
0.016000
41
0.016000
0
VERTEX
8
0
10
2.600000
20
-2.800000
0
VERTEX
8
0
10
2.400000
20
-2.800000
0
VERTEX
8
0
10
2.400000
20
-1.500000
0
VERTEX
8
0
10
1.800000
20
-1.500000
0
SEQEND
8
0
0
POLYLINE
8
0
66
1
40
0.016000
41
0.016000
0
VERTEX
8
0
10
1.800000
20
-1.400000
0
VERTEX
8
0
10
1.800000
20
-1.500000
0
SEQEND
8
0
0
POLYLINE
8
0
66
1
40
0.016000
41
0.016000
0
VERTEX
8
0
10
2.600000
20
-1.800000
0
VERTEX
8
0
10
2.500000
20
-1.800000
0
VERTEX
8
0
10
2.500000
20
-1.600000
0
VERTEX
8
0
10
0.800000
20
-1.600000
0
SEQEND
8
0
0
POLYLINE
8
0
66
1
40
0.016000
41
0.016000
0
VERTEX
8
0
10
0.200000
20
-1.700000
0
VERTEX
8
0
10
0.200000
20
-1.600000
0
VERTEX
8
0
10
0.800000
20
-1.600000
0
SEQEND
8
0
0
POLYLINE
8
0
66
1
40
0.016000
41
0.016000
0
VERTEX
8
0
10
0.800000
20
-1.400000
0
VERTEX
8
0
10
0.800000
20
-1.600000
0
SEQEND
8
0
0
POLYLINE
8
0
66
1
40
0.016000
41
0.016000
0
VERTEX
8
0
10
3.100000
20
-2.000000
0
VERTEX
8
0
10
3.100000
20
-2.100000
0
VERTEX
8
0
10
3.500000
20
-2.100000
0
VERTEX
8
0
10
3.500000
20
-1.800000
0
VERTEX
8
0
10
3.900000
20
-1.800000
0
VERTEX
8
0
10
3.900000
20
-1.500000
0
SEQEND
8
0
0
POLYLINE
8
0
66
1
40
0.016000
41
0.016000
0
VERTEX
8
0
10
4.400000
20
-1.300000
0
VERTEX
8
0
10
3.900000
20
-1.300000
0
VERTEX
8
0
10
3.900000
20
-1.500000
0
SEQEND
8
0
0
POLYLINE
8
0
66
1
40
0.016000
41
0.016000
0
VERTEX
8
0
10
4.400000
20
-1.500000
0
VERTEX
8
0
10
3.900000
20
-1.500000
0
SEQEND
8
0
0
POLYLINE
8
0
66
1
40
0.016000
41
0.016000
0
VERTEX
8
0
10
3.100000
20
-3.000000
0
VERTEX
8
0
10
3.100000
20
-3.100000
0
VERTEX
8
0
10
3.900000
20
-3.100000
0
VERTEX
8
0
10
3.900000
20
-2.300000
0
SEQEND
8
0
0
POLYLINE
8
0
66
1
40
0.016000
41
0.016000
0
VERTEX
8
0
10
4.400000
20
-2.100000
0
VERTEX
8
0
10
3.900000
20
-2.100000
0
VERTEX
8
0
10
3.900000
20
-2.300000
0
SEQEND
8
0
0
POLYLINE
8
0
66
1
40
0.016000
41
0.016000
0
VERTEX
8
0
10
4.400000
20
-2.300000
0
VERTEX
8
0
10
3.900000
20
-2.300000
0
SEQEND
8
0
0
POLYLINE
8
0
66
1
40
0.016000
41
0.016000
0
VERTEX
8
0
10
4.400000
20
-1.600000
0
VERTEX
8
0
10
4.300000
20
-1.600000
0
VERTEX
8
0
10
4.300000
20
-2.200000
0
SEQEND
8
0
0
POLYLINE
8
0
66
1
40
0.016000
41
0.016000
0
VERTEX
8
0
10
4.400000
20
-2.200000
0
VERTEX
8
0
10
4.300000
20
-2.200000
0
SEQEND
8
0
0
POLYLINE
8
0
66
1
40
0.016000
41
0.016000
0
VERTEX
8
0
10
4.400000
20
-2.400000
0
VERTEX
8
0
10
4.300000
20
-2.400000
0
SEQEND
8
0
0
POLYLINE
8
0
66
1
40
0.016000
41
0.016000
0
VERTEX
8
0
10
4.300000
20
-2.200000
0
VERTEX
8
0
10
4.300000
20
-2.400000
0
SEQEND
8
0
0
POLYLINE
8
0
66
1
40
0.016000
41
0.016000
0
VERTEX
8
0
10
4.300000
20
-2.900000
0
VERTEX
8
0
10
4.300000
20
-2.400000
0
SEQEND
8
0
0
POLYLINE
8
0
66
1
40
0.016000
41
0.016000
0
VERTEX
8
0
10
4.400000
20
-1.400000
0
VERTEX
8
0
10
4.300000
20
-1.400000
0
SEQEND
8
0
0
POLYLINE
8
0
66
1
40
0.016000
41
0.016000
0
VERTEX
8
0
10
4.300000
20
-1.600000
0
VERTEX
8
0
10
4.300000
20
-1.400000
0
VERTEX
8
0
10
4.300000
20
-1.000000
0
SEQEND
8
0
0
POLYLINE
8
0
66
1
40
0.016000
41
0.016000
0
VERTEX
8
0
10
4.300000
20
-0.800000
0
VERTEX
8
0
10
4.300000
20
-1.000000
0
SEQEND
8
0
0
POLYLINE
8
0
66
1
40
0.016000
41
0.016000
0
VERTEX
8
0
10
3.900000
20
-1.000000
0
VERTEX
8
0
10
4.300000
20
-1.000000
0
SEQEND
8
0
0
POLYLINE
8
0
66
1
40
0.016000
41
0.016000
0
VERTEX
8
0
10
3.100000
20
-0.900000
0
VERTEX
8
0
10
3.100000
20
-1.000000
0
SEQEND
8
0
0
POLYLINE
8
0
66
1
40
0.016000
41
0.016000
0
VERTEX
8
0
10
3.100000
20
-1.300000
0
VERTEX
8
0
10
3.100000
20
-1.000000
0
SEQEND
8
0
0
POLYLINE
8
0
66
1
40
0.016000
41
0.016000
0
VERTEX
8
0
10
3.500000
20
-1.000000
0
VERTEX
8
0
10
3.100000
20
-1.000000
0
SEQEND
8
0
0
POLYLINE
8
0
66
1
40
0.016000
41
0.016000
0
VERTEX
8
0
10
-1.700000
20
1.700000
0
VERTEX
8
0
10
-1.600000
20
1.700000
0
SEQEND
8
0
0
POLYLINE
8
0
66
1
40
0.016000
41
0.016000
0
VERTEX
8
0
10
-3.300000
20
-1.800000
0
VERTEX
8
0
10
-3.200000
20
-1.800000
0
VERTEX
8
0
10
-3.200000
20
-2.000000
0
SEQEND
8
0
0
POLYLINE
8
0
66
1
40
0.016000
41
0.016000
0
VERTEX
8
0
10
-2.900000
20
-2.300000
0
VERTEX
8
0
10
-2.700000
20
-2.300000
0
SEQEND
8
0
0
POLYLINE
8
0
66
1
40
0.016000
41
0.016000
0
VERTEX
8
0
10
-3.200000
20
-2.800000
0
VERTEX
8
0
10
-3.200000
20
-2.600000
0
SEQEND
8
0
0
POLYLINE
8
0
66
1
40
0.016000
41
0.016000
0
VERTEX
8
0
10
-3.300000
20
-1.500000
0
VERTEX
8
0
10
-3.100000
20
-1.500000
0
VERTEX
8
0
10
-3.100000
20
-1.100000
0
VERTEX
8
0
10
-3.800000
20
-1.100000
0
VERTEX
8
0
10
-3.800000
20
-1.300000
0
SEQEND
8
0
0
POLYLINE
8
0
66
1
40
0.016000
41
0.016000
0
VERTEX
8
0
10
-4.600000
20
-1.700000
0
VERTEX
8
0
10
-4.600000
20
-1.100000
0
VERTEX
8
0
10
-3.800000
20
-1.100000
0
SEQEND
8
0
0
POLYLINE
8
0
66
1
40
0.016000
41
0.016000
0
VERTEX
8
0
10
-2.100000
20
-2.300000
0
VERTEX
8
0
10
-2.200000
20
-2.300000
0
SEQEND
8
0
0
POLYLINE
8
0
66
1
40
0.016000
41
0.016000
0
VERTEX
8
0
10
-4.600000
20
-2.000000
0
VERTEX
8
0
10
-4.600000
20
-2.100000
0
VERTEX
8
0
10
-3.800000
20
-2.100000
0
VERTEX
8
0
10
-3.800000
20
-2.000000
0
SEQEND
8
0
0
POLYLINE
8
0
66
1
40
0.016000
41
0.016000
0
VERTEX
8
0
10
-3.800000
20
-2.200000
0
VERTEX
8
0
10
-3.800000
20
-2.100000
0
SEQEND
8
0
0
POLYLINE
8
0
66
1
40
0.016000
41
0.016000
0
VERTEX
8
0
10
-1.400000
20
0.600000
0
VERTEX
8
0
10
-1.100000
20
0.600000
0
SEQEND
8
0
0
POLYLINE
8
0
66
1
40
0.016000
41
0.016000
0
VERTEX
8
0
10
-3.600000
20
0.000000
0
VERTEX
8
0
10
-3.500000
20
0.000000
0
VERTEX
8
0
10
-3.500000
20
-1.000000
0
VERTEX
8
0
10
-3.800000
20
-1.000000
0
VERTEX
8
0
10
-3.800000
20
-1.100000
0
SEQEND
8
0
0
POLYLINE
8
0
66
1
40
0.016000
41
0.016000
0
VERTEX
8
0
10
0.900000
20
0.600000
0
VERTEX
8
0
10
1.000000
20
0.600000
0
SEQEND
8
0
0
POLYLINE
8
0
66
1
40
0.016000
41
0.016000
0
VERTEX
8
0
10
1.000000
20
0.100000
0
VERTEX
8
0
10
1.000000
20
0.600000
0
SEQEND
8
0
0
POLYLINE
8
0
66
1
40
0.016000
41
0.016000
0
VERTEX
8
0
10
0.300000
20
-0.800000
0
VERTEX
8
0
10
0.300000
20
-0.400000
0
VERTEX
8
0
10
0.300000
20
0.100000
0
SEQEND
8
0
0
POLYLINE
8
0
66
1
40
0.016000
41
0.016000
0
VERTEX
8
0
10
1.000000
20
-0.300000
0
VERTEX
8
0
10
1.000000
20
-0.400000
0
VERTEX
8
0
10
0.300000
20
-0.400000
0
SEQEND
8
0
0
POLYLINE
8
0
66
1
40
0.016000
41
0.016000
0
VERTEX
8
0
10
1.600000
20
-0.300000
0
VERTEX
8
0
10
1.600000
20
-0.400000
0
VERTEX
8
0
10
1.000000
20
-0.400000
0
SEQEND
8
0
0
POLYLINE
8
0
66
1
40
0.016000
41
0.016000
0
VERTEX
8
0
10
-0.500000
20
-0.300000
0
VERTEX
8
0
10
-0.500000
20
-0.400000
0
VERTEX
8
0
10
0.300000
20
-0.400000
0
SEQEND
8
0
0
POLYLINE
8
0
66
1
40
0.016000
41
0.016000
0
VERTEX
8
0
10
-0.700000
20
0.600000
0
VERTEX
8
0
10
-0.500000
20
0.600000
0
VERTEX
8
0
10
-0.300000
20
0.600000
0
SEQEND
8
0
0
POLYLINE
8
0
66
1
40
0.016000
41
0.016000
0
VERTEX
8
0
10
-0.500000
20
0.100000
0
VERTEX
8
0
10
-0.500000
20
0.600000
0
SEQEND
8
0
0
POLYLINE
8
0
66
1
40
0.016000
41
0.016000
0
VERTEX
8
0
10
1.000000
20
0.600000
0
VERTEX
8
0
10
1.600000
20
0.600000
0
VERTEX
8
0
10
1.600000
20
0.100000
0
SEQEND
8
0
0
POLYLINE
8
0
66
1
40
0.016000
41
0.016000
0
VERTEX
8
0
10
1.600000
20
0.600000
0
VERTEX
8
0
10
2.700000
20
0.600000
0
VERTEX
8
0
10
2.700000
20
0.800000
0
SEQEND
8
0
0
POLYLINE
8
0
66
1
40
0.016000
41
0.016000
0
VERTEX
8
0
10
-4.400000
20
0.000000
0
VERTEX
8
0
10
-4.100000
20
0.000000
0
SEQEND
8
0
0
POLYLINE
8
0
66
1
40
0.016000
41
0.016000
0
VERTEX
8
0
10
-4.400000
20
-0.100000
0
VERTEX
8
0
10
-4.200000
20
-0.100000
0
VERTEX
8
0
10
-4.200000
20
-0.600000
0
SEQEND
8
0
0
POLYLINE
8
0
66
1
40
0.016000
41
0.016000
0
VERTEX
8
0
10
4.700000
20
0.400000
0
VERTEX
8
0
10
4.700000
20
0.500000
0
SEQEND
8
0
0
POLYLINE
8
0
66
1
40
0.016000
41
0.016000
0
VERTEX
8
0
10
4.600000
20
0.400000
0
VERTEX
8
0
10
4.600000
20
0.500000
0
SEQEND
8
0
0
POLYLINE
8
0
66
1
40
0.016000
41
0.016000
0
VERTEX
8
0
10
4.500000
20
0.400000
0
VERTEX
8
0
10
4.500000
20
0.500000
0
SEQEND
8
0
0
POLYLINE
8
0
66
1
40
0.016000
41
0.016000
0
VERTEX
8
0
10
4.400000
20
0.400000
0
VERTEX
8
0
10
4.400000
20
0.500000
0
SEQEND
8
0
0
POLYLINE
8
0
66
1
40
0.016000
41
0.016000
0
VERTEX
8
0
10
3.800000
20
0.400000
0
VERTEX
8
0
10
3.800000
20
0.500000
0
SEQEND
8
0
0
POLYLINE
8
0
66
1
40
0.016000
41
0.016000
0
VERTEX
8
0
10
3.700000
20
0.400000
0
VERTEX
8
0
10
3.700000
20
0.500000
0
SEQEND
8
0
0
POLYLINE
8
0
66
1
40
0.016000
41
0.016000
0
VERTEX
8
0
10
3.600000
20
0.400000
0
VERTEX
8
0
10
3.600000
20
0.500000
0
SEQEND
8
0
0
POLYLINE
8
0
66
1
40
0.016000
41
0.016000
0
VERTEX
8
0
10
-0.200000
20
2.000000
0
VERTEX
8
0
10
0.100000
20
2.000000
0
SEQEND
8
0
0
POLYLINE
8
0
66
1
40
0.016000
41
0.016000
0
VERTEX
8
0
10
-0.100000
20
2.700000
0
VERTEX
8
0
10
-0.200000
20
2.700000
0
SEQEND
8
0
0
POLYLINE
8
0
66
1
40
0.016000
41
0.016000
0
VERTEX
8
0
10
-2.500000
20
2.500000
0
VERTEX
8
0
10
-2.300000
20
2.500000
0
VERTEX
8
0
10
-2.300000
20
2.100000
0
VERTEX
8
0
10
-1.700000
20
2.100000
0
VERTEX
8
0
10
-1.600000
20
2.500000
0
SEQEND
8
0
0
POLYLINE
8
0
66
1
40
0.016000
41
0.016000
0
VERTEX
8
0
10
-0.100000
20
2.600000
0
VERTEX
8
0
10
-0.200000
20
2.600000
0
SEQEND
8
0
0
POLYLINE
8
0
66
1
40
0.016000
41
0.016000
0
VERTEX
8
0
10
-1.700000
20
1.800000
0
VERTEX
8
0
10
-1.600000
20
1.800000
0
SEQEND
8
0
0
POLYLINE
8
0
66
1
40
0.016000
41
0.016000
0
VERTEX
8
0
10
-1.700000
20
1.900000
0
VERTEX
8
0
10
-1.600000
20
1.900000
0
SEQEND
8
0
0
POLYLINE
8
0
66
1
40
0.016000
41
0.016000
0
VERTEX
8
0
10
-1.700000
20
2.000000
0
VERTEX
8
0
10
-1.600000
20
2.000000
0
SEQEND
8
0
0
POLYLINE
8
0
66
1
40
0.016000
41
0.016000
0
VERTEX
8
0
10
-0.100000
20
2.500000
0
VERTEX
8
0
10
-0.200000
20
2.500000
0
SEQEND
8
0
0
POLYLINE
8
0
66
1
40
0.016000
41
0.016000
0
VERTEX
8
0
10
-1.400000
20
1.600000
0
VERTEX
8
0
10
-0.400000
20
1.600000
0
VERTEX
8
0
10
-0.400000
20
2.800000
0
VERTEX
8
0
10
-1.400000
20
2.800000
0
VERTEX
8
0
10
-1.400000
20
1.600000
0
SEQEND
8
0
0
POLYLINE
8
0
66
1
40
0.016000
41
0.016000
0
VERTEX
8
0
10
-1.600000
20
2.700000
0
VERTEX
8
0
10
-1.400000
20
2.700000
0
SEQEND
8
0
0
TEXT
8
0
10
-1.350000
20
2.660000
40
0.080000
41
1.000000
1
RA0/ICSPDAT
0
TEXT
8
0
10
-1.660000
20
2.710000
40
0.080000
41
1.000000
1
19
0
POLYLINE
8
0
66
1
40
0.016000
41
0.016000
0
VERTEX
8
0
10
-1.600000
20
2.600000
0
VERTEX
8
0
10
-1.400000
20
2.600000
0
SEQEND
8
0
0
TEXT
8
0
10
-1.350000
20
2.560000
40
0.080000
41
1.000000
1
RA1/ICSPCLK
0
TEXT
8
0
10
-1.660000
20
2.610000
40
0.080000
41
1.000000
1
18
0
POLYLINE
8
0
66
1
40
0.016000
41
0.016000
0
VERTEX
8
0
10
-1.600000
20
2.500000
0
VERTEX
8
0
10
-1.400000
20
2.500000
0
SEQEND
8
0
0
TEXT
8
0
10
-1.350000
20
2.460000
40
0.080000
41
1.000000
1
RA2
0
TEXT
8
0
10
-1.660000
20
2.510000
40
0.080000
41
1.000000
1
17
0
POLYLINE
8
0
66
1
40
0.016000
41
0.016000
0
VERTEX
8
0
10
-1.600000
20
2.200000
0
VERTEX
8
0
10
-1.400000
20
2.200000
0
SEQEND
8
0
0
TEXT
8
0
10
-1.350000
20
2.160000
40
0.080000
41
1.000000
1
RA5
0
TEXT
8
0
10
-1.580000
20
2.210000
40
0.080000
41
1.000000
1
2
0
POLYLINE
8
0
66
1
40
0.016000
41
0.016000
0
VERTEX
8
0
10
-0.200000
20
2.200000
0
VERTEX
8
0
10
-0.400000
20
2.200000
0
SEQEND
8
0
0
TEXT
8
0
10
-0.690000
20
2.160000
40
0.080000
41
1.000000
1
RC5
0
TEXT
8
0
10
-0.300000
20
2.210000
40
0.080000
41
1.000000
1
5
0
POLYLINE
8
0
66
1
40
0.016000
41
0.016000
0
VERTEX
8
0
10
-0.200000
20
2.300000
0
VERTEX
8
0
10
-0.400000
20
2.300000
0
SEQEND
8
0
0
TEXT
8
0
10
-0.690000
20
2.260000
40
0.080000
41
1.000000
1
RC4
0
TEXT
8
0
10
-0.300000
20
2.310000
40
0.080000
41
1.000000
1
6
0
POLYLINE
8
0
66
1
40
0.016000
41
0.016000
0
VERTEX
8
0
10
-0.200000
20
2.400000
0
VERTEX
8
0
10
-0.400000
20
2.400000
0
SEQEND
8
0
0
TEXT
8
0
10
-0.690000
20
2.360000
40
0.080000
41
1.000000
1
RC3
0
TEXT
8
0
10
-0.300000
20
2.410000
40
0.080000
41
1.000000
1
7
0
POLYLINE
8
0
66
1
40
0.016000
41
0.016000
0
VERTEX
8
0
10
-0.200000
20
2.500000
0
VERTEX
8
0
10
-0.400000
20
2.500000
0
SEQEND
8
0
0
TEXT
8
0
10
-0.690000
20
2.460000
40
0.080000
41
1.000000
1
RC2
0
TEXT
8
0
10
-0.300000
20
2.510000
40
0.080000
41
1.000000
1
14
0
POLYLINE
8
0
66
1
40
0.016000
41
0.016000
0
VERTEX
8
0
10
-0.200000
20
2.600000
0
VERTEX
8
0
10
-0.400000
20
2.600000
0
SEQEND
8
0
0
TEXT
8
0
10
-0.690000
20
2.560000
40
0.080000
41
1.000000
1
RC1
0
TEXT
8
0
10
-0.300000
20
2.610000
40
0.080000
41
1.000000
1
15
0
POLYLINE
8
0
66
1
40
0.016000
41
0.016000
0
VERTEX
8
0
10
-0.200000
20
2.700000
0
VERTEX
8
0
10
-0.400000
20
2.700000
0
SEQEND
8
0
0
TEXT
8
0
10
-0.690000
20
2.660000
40
0.080000
41
1.000000
1
RC0
0
TEXT
8
0
10
-0.300000
20
2.710000
40
0.080000
41
1.000000
1
16
0
POLYLINE
8
0
66
1
40
0.016000
41
0.016000
0
VERTEX
8
0
10
-1.600000
20
2.400000
0
VERTEX
8
0
10
-1.400000
20
2.400000
0
SEQEND
8
0
0
TEXT
8
0
10
-1.350000
20
2.360000
40
0.080000
41
1.000000
1
RA3/VPP/MCLR
0
TEXT
8
0
10
-1.580000
20
2.410000
40
0.080000
41
1.000000
1
4
0
POLYLINE
8
0
66
1
40
0.016000
41
0.016000
0
VERTEX
8
0
10
-1.600000
20
2.300000
0
VERTEX
8
0
10
-1.400000
20
2.300000
0
SEQEND
8
0
0
TEXT
8
0
10
-1.350000
20
2.260000
40
0.080000
41
1.000000
1
RA4
0
TEXT
8
0
10
-1.580000
20
2.310000
40
0.080000
41
1.000000
1
3
0
POLYLINE
8
0
66
1
40
0.016000
41
0.016000
0
VERTEX
8
0
10
-0.200000
20
2.000000
0
VERTEX
8
0
10
-0.400000
20
2.000000
0
SEQEND
8
0
0
TEXT
8
0
10
-0.690000
20
1.960000
40
0.080000
41
1.000000
1
RC7
0
TEXT
8
0
10
-0.300000
20
2.010000
40
0.080000
41
1.000000
1
9
0
POLYLINE
8
0
66
1
40
0.016000
41
0.016000
0
VERTEX
8
0
10
-0.200000
20
2.100000
0
VERTEX
8
0
10
-0.400000
20
2.100000
0
SEQEND
8
0
0
TEXT
8
0
10
-0.690000
20
2.060000
40
0.080000
41
1.000000
1
RC6
0
TEXT
8
0
10
-0.300000
20
2.110000
40
0.080000
41
1.000000
1
8
0
POLYLINE
8
0
66
1
40
0.016000
41
0.016000
0
VERTEX
8
0
10
-1.600000
20
2.000000
0
VERTEX
8
0
10
-1.400000
20
2.000000
0
SEQEND
8
0
0
TEXT
8
0
10
-1.350000
20
1.960000
40
0.080000
41
1.000000
1
RB4
0
TEXT
8
0
10
-1.660000
20
2.010000
40
0.080000
41
1.000000
1
13
0
POLYLINE
8
0
66
1
40
0.016000
41
0.016000
0
VERTEX
8
0
10
-1.600000
20
1.700000
0
VERTEX
8
0
10
-1.400000
20
1.700000
0
SEQEND
8
0
0
TEXT
8
0
10
-1.350000
20
1.660000
40
0.080000
41
1.000000
1
RB7
0
TEXT
8
0
10
-1.660000
20
1.710000
40
0.080000
41
1.000000
1
10
0
POLYLINE
8
0
66
1
40
0.016000
41
0.016000
0
VERTEX
8
0
10
-1.600000
20
1.900000
0
VERTEX
8
0
10
-1.400000
20
1.900000
0
SEQEND
8
0
0
TEXT
8
0
10
-1.350000
20
1.860000
40
0.080000
41
1.000000
1
RB5
0
TEXT
8
0
10
-1.660000
20
1.910000
40
0.080000
41
1.000000
1
12
0
POLYLINE
8
0
66
1
40
0.016000
41
0.016000
0
VERTEX
8
0
10
-1.600000
20
1.800000
0
VERTEX
8
0
10
-1.400000
20
1.800000
0
SEQEND
8
0
0
TEXT
8
0
10
-1.350000
20
1.760000
40
0.080000
41
1.000000
1
RB6
0
TEXT
8
0
10
-1.660000
20
1.810000
40
0.080000
41
1.000000
1
11
0
TEXT
8
0
10
-1.408000
20
2.823000
40
0.120000
41
0.666667
1
U1
0
TEXT
8
0
10
-1.408000
20
1.502000
40
0.080000
41
1.000000
1
PIC16F1508
0
POLYLINE
8
0
66
1
40
0.016000
41
0.016000
0
VERTEX
8
0
10
2.900000
20
2.700000
0
VERTEX
8
0
10
3.200000
20
2.700000
0
VERTEX
8
0
10
3.200000
20
2.900000
0
VERTEX
8
0
10
2.900000
20
2.900000
0
VERTEX
8
0
10
2.900000
20
2.700000
0
SEQEND
8
0
0
POLYLINE
8
0
66
1
40
0.016000
41
0.016000
0
VERTEX
8
0
10
3.000000
20
2.770000
0
VERTEX
8
0
10
3.000000
20
2.700000
0
SEQEND
8
0
0
CIRCLE
8
128
10
3.100000
20
2.800000
40
0.030000
0
POLYLINE
8
0
66
1
40
0.016000
41
0.016000
0
VERTEX
8
0
10
3.100000
20
2.770000
0
VERTEX
8
0
10
3.100000
20
2.700000
0
SEQEND
8
0
0
CIRCLE
8
128
10
3.000000
20
2.800000
40
0.030000
0
POLYLINE
8
0
66
1
40
0.016000
41
0.016000
0
VERTEX
8
0
10
3.000000
20
2.500000
0
VERTEX
8
0
10
3.000000
20
2.700000
0
SEQEND
8
0
0
TEXT
8
0
10
2.990000
20
2.520000
40
0.080000
41
1.000000
50
90.000000
1
1
0
POLYLINE
8
0
66
1
40
0.016000
41
0.016000
0
VERTEX
8
0
10
3.100000
20
2.500000
0
VERTEX
8
0
10
3.100000
20
2.700000
0
SEQEND
8
0
0
TEXT
8
0
10
3.090000
20
2.520000
40
0.080000
41
1.000000
50
90.000000
1
2
0
TEXT
8
0
10
2.892000
20
3.023000
40
0.120000
41
0.666667
1
LEDW
0
POLYLINE
8
0
66
1
40
0.016000
41
0.016000
0
VERTEX
8
0
10
3.100000
20
1.700000
0
VERTEX
8
0
10
3.100000
20
1.600000
0
SEQEND
8
0
0
POLYLINE
8
0
66
1
40
0.016000
41
0.016000
0
VERTEX
8
0
10
3.000000
20
1.600000
0
VERTEX
8
0
10
3.200000
20
1.600000
0
SEQEND
8
0
0
POLYLINE
8
0
66
1
40
0.016000
41
0.016000
0
VERTEX
8
0
10
3.050000
20
1.550000
0
VERTEX
8
0
10
3.150000
20
1.550000
0
SEQEND
8
0
0
POLYLINE
8
0
66
1
40
0.016000
41
0.016000
0
VERTEX
8
0
10
3.090000
20
1.500000
0
VERTEX
8
0
10
3.110000
20
1.500000
0
SEQEND
8
0
0
CIRCLE
8
16384
10
2.700000
20
2.760000
40
0.040000
0
POLYLINE
8
0
66
1
40
0.016000
41
0.016000
0
VERTEX
8
0
10
2.700000
20
2.720000
0
VERTEX
8
0
10
2.700000
20
2.600000
0
SEQEND
8
0
0
TEXT
8
0
10
2.740000
20
2.850000
40
0.080000
41
1.000000
50
90.000000
1
ledw
0
CIRCLE
8
16384
10
3.000000
20
2.400000
40
0.020000
0
POLYLINE
8
0
66
1
40
0.016000
41
0.016000
0
VERTEX
8
0
10
1.500000
20
2.700000
0
VERTEX
8
0
10
1.800000
20
2.700000
0
VERTEX
8
0
10
1.800000
20
2.900000
0
VERTEX
8
0
10
1.500000
20
2.900000
0
VERTEX
8
0
10
1.500000
20
2.700000
0
SEQEND
8
0
0
POLYLINE
8
0
66
1
40
0.016000
41
0.016000
0
VERTEX
8
0
10
1.600000
20
2.770000
0
VERTEX
8
0
10
1.600000
20
2.700000
0
SEQEND
8
0
0
CIRCLE
8
128
10
1.700000
20
2.800000
40
0.030000
0
POLYLINE
8
0
66
1
40
0.016000
41
0.016000
0
VERTEX
8
0
10
1.700000
20
2.770000
0
VERTEX
8
0
10
1.700000
20
2.700000
0
SEQEND
8
0
0
CIRCLE
8
128
10
1.600000
20
2.800000
40
0.030000
0
POLYLINE
8
0
66
1
40
0.016000
41
0.016000
0
VERTEX
8
0
10
1.600000
20
2.500000
0
VERTEX
8
0
10
1.600000
20
2.700000
0
SEQEND
8
0
0
TEXT
8
0
10
1.590000
20
2.520000
40
0.080000
41
1.000000
50
90.000000
1
1
0
POLYLINE
8
0
66
1
40
0.016000
41
0.016000
0
VERTEX
8
0
10
1.700000
20
2.500000
0
VERTEX
8
0
10
1.700000
20
2.700000
0
SEQEND
8
0
0
TEXT
8
0
10
1.690000
20
2.520000
40
0.080000
41
1.000000
50
90.000000
1
2
0
TEXT
8
0
10
1.492000
20
2.923000
40
0.120000
41
0.666667
1
LEDR
0
POLYLINE
8
0
66
1
40
0.016000
41
0.016000
0
VERTEX
8
0
10
1.700000
20
1.700000
0
VERTEX
8
0
10
1.700000
20
1.600000
0
SEQEND
8
0
0
POLYLINE
8
0
66
1
40
0.016000
41
0.016000
0
VERTEX
8
0
10
1.600000
20
1.600000
0
VERTEX
8
0
10
1.800000
20
1.600000
0
SEQEND
8
0
0
POLYLINE
8
0
66
1
40
0.016000
41
0.016000
0
VERTEX
8
0
10
1.650000
20
1.550000
0
VERTEX
8
0
10
1.750000
20
1.550000
0
SEQEND
8
0
0
POLYLINE
8
0
66
1
40
0.016000
41
0.016000
0
VERTEX
8
0
10
1.690000
20
1.500000
0
VERTEX
8
0
10
1.710000
20
1.500000
0
SEQEND
8
0
0
CIRCLE
8
16384
10
1.400000
20
2.660000
40
0.040000
0
POLYLINE
8
0
66
1
40
0.016000
41
0.016000
0
VERTEX
8
0
10
1.400000
20
2.620000
0
VERTEX
8
0
10
1.400000
20
2.500000
0
SEQEND
8
0
0
TEXT
8
0
10
1.440000
20
2.750000
40
0.080000
41
1.000000
50
90.000000
1
ledr
0
CIRCLE
8
16384
10
1.500000
20
2.400000
40
0.020000
0
POLYLINE
8
0
66
1
40
0.016000
41
0.016000
0
VERTEX
8
0
10
0.600000
20
2.360000
0
VERTEX
8
0
10
0.900000
20
2.360000
0
VERTEX
8
0
10
0.900000
20
2.440000
0
VERTEX
8
0
10
0.600000
20
2.440000
0
VERTEX
8
0
10
0.600000
20
2.360000
0
SEQEND
8
0
0
POLYLINE
8
0
66
1
40
0.016000
41
0.016000
0
VERTEX
8
0
10
0.500000
20
2.400000
0
VERTEX
8
0
10
0.600000
20
2.400000
0
SEQEND
8
0
0
POLYLINE
8
0
66
1
40
0.016000
41
0.016000
0
VERTEX
8
0
10
1.000000
20
2.400000
0
VERTEX
8
0
10
0.900000
20
2.400000
0
SEQEND
8
0
0
TEXT
8
0
10
0.592000
20
2.463000
40
0.120000
41
0.666667
1
R1
0
TEXT
8
0
10
0.792000
20
2.462000
40
0.080000
41
1.000000
1
330
0
POLYLINE
8
0
66
1
40
0.016000
41
0.016000
0
VERTEX
8
0
10
1.800000
20
2.260000
0
VERTEX
8
0
10
2.100000
20
2.260000
0
VERTEX
8
0
10
2.100000
20
2.340000
0
VERTEX
8
0
10
1.800000
20
2.340000
0
VERTEX
8
0
10
1.800000
20
2.260000
0
SEQEND
8
0
0
POLYLINE
8
0
66
1
40
0.016000
41
0.016000
0
VERTEX
8
0
10
1.700000
20
2.300000
0
VERTEX
8
0
10
1.800000
20
2.300000
0
SEQEND
8
0
0
POLYLINE
8
0
66
1
40
0.016000
41
0.016000
0
VERTEX
8
0
10
2.200000
20
2.300000
0
VERTEX
8
0
10
2.100000
20
2.300000
0
SEQEND
8
0
0
TEXT
8
0
10
1.792000
20
2.363000
40
0.120000
41
0.666667
1
R2
0
TEXT
8
0
10
1.992000
20
2.362000
40
0.080000
41
1.000000
1
330
0
CIRCLE
8
16384
10
2.700000
20
2.400000
40
0.020000
0
POLYLINE
8
0
66
1
40
0.016000
41
0.016000
0
VERTEX
8
0
10
1.320000
20
1.800000
0
VERTEX
8
0
10
1.370000
20
1.800000
0
VERTEX
8
0
10
1.370000
20
2.000000
0
VERTEX
8
0
10
1.320000
20
2.000000
0
VERTEX
8
0
10
1.320000
20
1.800000
0
SEQEND
8
0
0
POLYLINE
8
0
66
1
40
0.016000
41
0.016000
0
VERTEX
8
0
10
1.430000
20
1.800000
0
VERTEX
8
0
10
1.480000
20
1.800000
0
VERTEX
8
0
10
1.480000
20
2.000000
0
VERTEX
8
0
10
1.430000
20
2.000000
0
VERTEX
8
0
10
1.430000
20
1.800000
0
SEQEND
8
0
0
POLYLINE
8
0
66
1
40
0.016000
41
0.016000
0
VERTEX
8
0
10
1.480000
20
1.900000
0
VERTEX
8
0
10
1.500000
20
1.900000
0
SEQEND
8
0
0
POLYLINE
8
0
66
1
40
0.016000
41
0.016000
0
VERTEX
8
0
10
1.320000
20
1.900000
0
VERTEX
8
0
10
1.300000
20
1.900000
0
SEQEND
8
0
0
POLYLINE
8
0
66
1
40
0.016000
41
0.016000
0
VERTEX
8
0
10
1.430000
20
1.950000
0
VERTEX
8
0
10
1.480000
20
2.000000
0
SEQEND
8
0
0
POLYLINE
8
0
66
1
40
0.016000
41
0.016000
0
VERTEX
8
0
10
1.430000
20
1.900000
0
VERTEX
8
0
10
1.480000
20
1.950000
0
SEQEND
8
0
0
POLYLINE
8
0
66
1
40
0.016000
41
0.016000
0
VERTEX
8
0
10
1.430000
20
1.850000
0
VERTEX
8
0
10
1.480000
20
1.900000
0
SEQEND
8
0
0
POLYLINE
8
0
66
1
40
0.016000
41
0.016000
0
VERTEX
8
0
10
1.430000
20
1.800000
0
VERTEX
8
0
10
1.480000
20
1.850000
0
SEQEND
8
0
0
POLYLINE
8
0
66
1
40
0.016000
41
0.016000
0
VERTEX
8
0
10
1.200000
20
1.900000
0
VERTEX
8
0
10
1.300000
20
1.900000
0
SEQEND
8
0
0
POLYLINE
8
0
66
1
40
0.016000
41
0.016000
0
VERTEX
8
0
10
1.600000
20
1.900000
0
VERTEX
8
0
10
1.500000
20
1.900000
0
SEQEND
8
0
0
TEXT
8
0
10
1.292000
20
2.023000
40
0.120000
41
0.666667
1
C1
0
TEXT
8
0
10
1.292000
20
1.702000
40
0.080000
41
1.000000
1
10u
0
CIRCLE
8
16384
10
1.700000
20
1.900000
40
0.020000
0
CIRCLE
8
16384
10
1.100000
20
2.400000
40
0.020000
0
POLYLINE
8
0
66
1
40
0.016000
41
0.016000
0
VERTEX
8
0
10
2.520000
20
1.800000
0
VERTEX
8
0
10
2.570000
20
1.800000
0
VERTEX
8
0
10
2.570000
20
2.000000
0
VERTEX
8
0
10
2.520000
20
2.000000
0
VERTEX
8
0
10
2.520000
20
1.800000
0
SEQEND
8
0
0
POLYLINE
8
0
66
1
40
0.016000
41
0.016000
0
VERTEX
8
0
10
2.630000
20
1.800000
0
VERTEX
8
0
10
2.680000
20
1.800000
0
VERTEX
8
0
10
2.680000
20
2.000000
0
VERTEX
8
0
10
2.630000
20
2.000000
0
VERTEX
8
0
10
2.630000
20
1.800000
0
SEQEND
8
0
0
POLYLINE
8
0
66
1
40
0.016000
41
0.016000
0
VERTEX
8
0
10
2.680000
20
1.900000
0
VERTEX
8
0
10
2.700000
20
1.900000
0
SEQEND
8
0
0
POLYLINE
8
0
66
1
40
0.016000
41
0.016000
0
VERTEX
8
0
10
2.520000
20
1.900000
0
VERTEX
8
0
10
2.500000
20
1.900000
0
SEQEND
8
0
0
POLYLINE
8
0
66
1
40
0.016000
41
0.016000
0
VERTEX
8
0
10
2.630000
20
1.950000
0
VERTEX
8
0
10
2.680000
20
2.000000
0
SEQEND
8
0
0
POLYLINE
8
0
66
1
40
0.016000
41
0.016000
0
VERTEX
8
0
10
2.630000
20
1.900000
0
VERTEX
8
0
10
2.680000
20
1.950000
0
SEQEND
8
0
0
POLYLINE
8
0
66
1
40
0.016000
41
0.016000
0
VERTEX
8
0
10
2.630000
20
1.850000
0
VERTEX
8
0
10
2.680000
20
1.900000
0
SEQEND
8
0
0
POLYLINE
8
0
66
1
40
0.016000
41
0.016000
0
VERTEX
8
0
10
2.630000
20
1.800000
0
VERTEX
8
0
10
2.680000
20
1.850000
0
SEQEND
8
0
0
POLYLINE
8
0
66
1
40
0.016000
41
0.016000
0
VERTEX
8
0
10
2.400000
20
1.900000
0
VERTEX
8
0
10
2.500000
20
1.900000
0
SEQEND
8
0
0
POLYLINE
8
0
66
1
40
0.016000
41
0.016000
0
VERTEX
8
0
10
2.800000
20
1.900000
0
VERTEX
8
0
10
2.700000
20
1.900000
0
SEQEND
8
0
0
TEXT
8
0
10
2.492000
20
2.023000
40
0.120000
41
0.666667
1
C2
0
TEXT
8
0
10
2.492000
20
1.702000
40
0.080000
41
1.000000
1
10u
0
CIRCLE
8
16384
10
3.100000
20
1.900000
40
0.020000
0
CIRCLE
8
16384
10
2.700000
20
2.300000
40
0.020000
0
POLYLINE
8
0
66
1
40
0.016000
41
0.016000
0
VERTEX
8
0
10
-3.600000
20
2.900000
0
VERTEX
8
0
10
-2.900000
20
2.900000
0
VERTEX
8
0
10
-2.900000
20
3.100000
0
VERTEX
8
0
10
-3.600000
20
3.100000
0
VERTEX
8
0
10
-3.600000
20
2.900000
0
SEQEND
8
0
0
POLYLINE
8
0
66
1
40
0.016000
41
0.016000
0
VERTEX
8
0
10
-3.500000
20
2.970000
0
VERTEX
8
0
10
-3.500000
20
2.900000
0
SEQEND
8
0
0
CIRCLE
8
128
10
-3.400000
20
3.000000
40
0.030000
0
POLYLINE
8
0
66
1
40
0.016000
41
0.016000
0
VERTEX
8
0
10
-3.400000
20
2.970000
0
VERTEX
8
0
10
-3.400000
20
2.900000
0
SEQEND
8
0
0
CIRCLE
8
128
10
-3.300000
20
3.000000
40
0.030000
0
POLYLINE
8
0
66
1
40
0.016000
41
0.016000
0
VERTEX
8
0
10
-3.300000
20
2.970000
0
VERTEX
8
0
10
-3.300000
20
2.900000
0
SEQEND
8
0
0
CIRCLE
8
128
10
-3.200000
20
3.000000
40
0.030000
0
POLYLINE
8
0
66
1
40
0.016000
41
0.016000
0
VERTEX
8
0
10
-3.200000
20
2.970000
0
VERTEX
8
0
10
-3.200000
20
2.900000
0
SEQEND
8
0
0
CIRCLE
8
128
10
-3.100000
20
3.000000
40
0.030000
0
POLYLINE
8
0
66
1
40
0.016000
41
0.016000
0
VERTEX
8
0
10
-3.100000
20
2.970000
0
VERTEX
8
0
10
-3.100000
20
2.900000
0
SEQEND
8
0
0
CIRCLE
8
128
10
-3.000000
20
3.000000
40
0.030000
0
POLYLINE
8
0
66
1
40
0.016000
41
0.016000
0
VERTEX
8
0
10
-3.000000
20
2.970000
0
VERTEX
8
0
10
-3.000000
20
2.900000
0
SEQEND
8
0
0
CIRCLE
8
128
10
-3.500000
20
3.000000
40
0.030000
0
POLYLINE
8
0
66
1
40
0.016000
41
0.016000
0
VERTEX
8
0
10
-3.500000
20
2.700000
0
VERTEX
8
0
10
-3.500000
20
2.900000
0
SEQEND
8
0
0
TEXT
8
0
10
-3.510000
20
2.720000
40
0.080000
41
1.000000
50
90.000000
1
1
0
POLYLINE
8
0
66
1
40
0.016000
41
0.016000
0
VERTEX
8
0
10
-3.400000
20
2.700000
0
VERTEX
8
0
10
-3.400000
20
2.900000
0
SEQEND
8
0
0
TEXT
8
0
10
-3.410000
20
2.720000
40
0.080000
41
1.000000
50
90.000000
1
2
0
POLYLINE
8
0
66
1
40
0.016000
41
0.016000
0
VERTEX
8
0
10
-3.300000
20
2.700000
0
VERTEX
8
0
10
-3.300000
20
2.900000
0
SEQEND
8
0
0
TEXT
8
0
10
-3.310000
20
2.720000
40
0.080000
41
1.000000
50
90.000000
1
3
0
POLYLINE
8
0
66
1
40
0.016000
41
0.016000
0
VERTEX
8
0
10
-3.200000
20
2.700000
0
VERTEX
8
0
10
-3.200000
20
2.900000
0
SEQEND
8
0
0
TEXT
8
0
10
-3.210000
20
2.720000
40
0.080000
41
1.000000
50
90.000000
1
4
0
POLYLINE
8
0
66
1
40
0.016000
41
0.016000
0
VERTEX
8
0
10
-3.100000
20
2.700000
0
VERTEX
8
0
10
-3.100000
20
2.900000
0
SEQEND
8
0
0
TEXT
8
0
10
-3.110000
20
2.720000
40
0.080000
41
1.000000
50
90.000000
1
5
0
POLYLINE
8
0
66
1
40
0.016000
41
0.016000
0
VERTEX
8
0
10
-3.000000
20
2.700000
0
VERTEX
8
0
10
-3.000000
20
2.900000
0
SEQEND
8
0
0
TEXT
8
0
10
-3.010000
20
2.720000
40
0.080000
41
1.000000
50
90.000000
1
6
0
TEXT
8
0
10
-3.608000
20
3.323000
40
0.120000
41
0.666667
1
BUTTONS
0
TEXT
8
0
10
-3.608000
20
3.218000
40
0.080000
41
1.000000
1
CONN-H6
0
POLYLINE
8
0
66
1
40
0.016000
41
0.016000
0
VERTEX
8
0
10
-4.300000
20
2.160000
0
VERTEX
8
0
10
-4.000000
20
2.160000
0
VERTEX
8
0
10
-4.000000
20
2.240000
0
VERTEX
8
0
10
-4.300000
20
2.240000
0
VERTEX
8
0
10
-4.300000
20
2.160000
0
SEQEND
8
0
0
POLYLINE
8
0
66
1
40
0.016000
41
0.016000
0
VERTEX
8
0
10
-3.900000
20
2.200000
0
VERTEX
8
0
10
-4.000000
20
2.200000
0
SEQEND
8
0
0
POLYLINE
8
0
66
1
40
0.016000
41
0.016000
0
VERTEX
8
0
10
-4.400000
20
2.200000
0
VERTEX
8
0
10
-4.300000
20
2.200000
0
SEQEND
8
0
0
TEXT
8
0
10
-4.308000
20
2.263000
40
0.120000
41
0.666667
1
R3
0
TEXT
8
0
10
-4.308000
20
2.062000
40
0.080000
41
1.000000
1
10k
0
CIRCLE
8
16384
10
-3.500000
20
2.200000
40
0.020000
0
POLYLINE
8
0
66
1
40
0.016000
41
0.016000
0
VERTEX
8
0
10
-4.300000
20
1.760000
0
VERTEX
8
0
10
-4.000000
20
1.760000
0
VERTEX
8
0
10
-4.000000
20
1.840000
0
VERTEX
8
0
10
-4.300000
20
1.840000
0
VERTEX
8
0
10
-4.300000
20
1.760000
0
SEQEND
8
0
0
POLYLINE
8
0
66
1
40
0.016000
41
0.016000
0
VERTEX
8
0
10
-3.900000
20
1.800000
0
VERTEX
8
0
10
-4.000000
20
1.800000
0
SEQEND
8
0
0
POLYLINE
8
0
66
1
40
0.016000
41
0.016000
0
VERTEX
8
0
10
-4.400000
20
1.800000
0
VERTEX
8
0
10
-4.300000
20
1.800000
0
SEQEND
8
0
0
TEXT
8
0
10
-4.308000
20
1.863000
40
0.120000
41
0.666667
1
R4
0
TEXT
8
0
10
-4.308000
20
1.662000
40
0.080000
41
1.000000
1
10k
0
CIRCLE
8
16384
10
-3.300000
20
1.800000
40
0.020000
0
POLYLINE
8
0
66
1
40
0.016000
41
0.016000
0
VERTEX
8
0
10
-4.300000
20
1.360000
0
VERTEX
8
0
10
-4.000000
20
1.360000
0
VERTEX
8
0
10
-4.000000
20
1.440000
0
VERTEX
8
0
10
-4.300000
20
1.440000
0
VERTEX
8
0
10
-4.300000
20
1.360000
0
SEQEND
8
0
0
POLYLINE
8
0
66
1
40
0.016000
41
0.016000
0
VERTEX
8
0
10
-3.900000
20
1.400000
0
VERTEX
8
0
10
-4.000000
20
1.400000
0
SEQEND
8
0
0
POLYLINE
8
0
66
1
40
0.016000
41
0.016000
0
VERTEX
8
0
10
-4.400000
20
1.400000
0
VERTEX
8
0
10
-4.300000
20
1.400000
0
SEQEND
8
0
0
TEXT
8
0
10
-4.308000
20
1.463000
40
0.120000
41
0.666667
1
R5
0
TEXT
8
0
10
-4.308000
20
1.262000
40
0.080000
41
1.000000
1
10k
0
CIRCLE
8
16384
10
-3.100000
20
1.400000
40
0.020000
0
CIRCLE
8
16384
10
-3.200000
20
2.600000
40
0.020000
0
POLYLINE
8
0
66
1
40
0.016000
41
0.016000
0
VERTEX
8
0
10
-3.200000
20
1.200000
0
VERTEX
8
0
10
-3.200000
20
1.100000
0
SEQEND
8
0
0
POLYLINE
8
0
66
1
40
0.016000
41
0.016000
0
VERTEX
8
0
10
-3.300000
20
1.100000
0
VERTEX
8
0
10
-3.100000
20
1.100000
0
SEQEND
8
0
0
POLYLINE
8
0
66
1
40
0.016000
41
0.016000
0
VERTEX
8
0
10
-3.250000
20
1.050000
0
VERTEX
8
0
10
-3.150000
20
1.050000
0
SEQEND
8
0
0
POLYLINE
8
0
66
1
40
0.016000
41
0.016000
0
VERTEX
8
0
10
-3.210000
20
1.000000
0
VERTEX
8
0
10
-3.190000
20
1.000000
0
SEQEND
8
0
0
POLYLINE
8
0
66
1
40
0.016000
41
0.016000
0
VERTEX
8
0
10
-2.800000
20
0.920000
0
VERTEX
8
0
10
-2.600000
20
0.920000
0
VERTEX
8
0
10
-2.600000
20
0.970000
0
VERTEX
8
0
10
-2.800000
20
0.970000
0
VERTEX
8
0
10
-2.800000
20
0.920000
0
SEQEND
8
0
0
POLYLINE
8
0
66
1
40
0.016000
41
0.016000
0
VERTEX
8
0
10
-2.800000
20
1.030000
0
VERTEX
8
0
10
-2.600000
20
1.030000
0
VERTEX
8
0
10
-2.600000
20
1.080000
0
VERTEX
8
0
10
-2.800000
20
1.080000
0
VERTEX
8
0
10
-2.800000
20
1.030000
0
SEQEND
8
0
0
POLYLINE
8
0
66
1
40
0.016000
41
0.016000
0
VERTEX
8
0
10
-2.700000
20
1.080000
0
VERTEX
8
0
10
-2.700000
20
1.100000
0
SEQEND
8
0
0
POLYLINE
8
0
66
1
40
0.016000
41
0.016000
0
VERTEX
8
0
10
-2.700000
20
0.920000
0
VERTEX
8
0
10
-2.700000
20
0.900000
0
SEQEND
8
0
0
POLYLINE
8
0
66
1
40
0.016000
41
0.016000
0
VERTEX
8
0
10
-2.750000
20
1.030000
0
VERTEX
8
0
10
-2.800000
20
1.080000
0
SEQEND
8
0
0
POLYLINE
8
0
66
1
40
0.016000
41
0.016000
0
VERTEX
8
0
10
-2.700000
20
1.030000
0
VERTEX
8
0
10
-2.750000
20
1.080000
0
SEQEND
8
0
0
POLYLINE
8
0
66
1
40
0.016000
41
0.016000
0
VERTEX
8
0
10
-2.650000
20
1.030000
0
VERTEX
8
0
10
-2.700000
20
1.080000
0
SEQEND
8
0
0
POLYLINE
8
0
66
1
40
0.016000
41
0.016000
0
VERTEX
8
0
10
-2.600000
20
1.030000
0
VERTEX
8
0
10
-2.650000
20
1.080000
0
SEQEND
8
0
0
POLYLINE
8
0
66
1
40
0.016000
41
0.016000
0
VERTEX
8
0
10
-2.700000
20
0.800000
0
VERTEX
8
0
10
-2.700000
20
0.900000
0
SEQEND
8
0
0
POLYLINE
8
0
66
1
40
0.016000
41
0.016000
0
VERTEX
8
0
10
-2.700000
20
1.200000
0
VERTEX
8
0
10
-2.700000
20
1.100000
0
SEQEND
8
0
0
TEXT
8
0
10
-2.942000
20
0.573000
40
0.120000
41
0.666667
1
C3
0
TEXT
8
0
10
-2.942000
20
0.768000
40
0.080000
41
1.000000
1
10u
0
POLYLINE
8
0
66
1
40
0.016000
41
0.016000
0
VERTEX
8
0
10
-2.500000
20
0.920000
0
VERTEX
8
0
10
-2.300000
20
0.920000
0
VERTEX
8
0
10
-2.300000
20
0.970000
0
VERTEX
8
0
10
-2.500000
20
0.970000
0
VERTEX
8
0
10
-2.500000
20
0.920000
0
SEQEND
8
0
0
POLYLINE
8
0
66
1
40
0.016000
41
0.016000
0
VERTEX
8
0
10
-2.500000
20
1.030000
0
VERTEX
8
0
10
-2.300000
20
1.030000
0
VERTEX
8
0
10
-2.300000
20
1.080000
0
VERTEX
8
0
10
-2.500000
20
1.080000
0
VERTEX
8
0
10
-2.500000
20
1.030000
0
SEQEND
8
0
0
POLYLINE
8
0
66
1
40
0.016000
41
0.016000
0
VERTEX
8
0
10
-2.400000
20
1.080000
0
VERTEX
8
0
10
-2.400000
20
1.100000
0
SEQEND
8
0
0
POLYLINE
8
0
66
1
40
0.016000
41
0.016000
0
VERTEX
8
0
10
-2.400000
20
0.920000
0
VERTEX
8
0
10
-2.400000
20
0.900000
0
SEQEND
8
0
0
POLYLINE
8
0
66
1
40
0.016000
41
0.016000
0
VERTEX
8
0
10
-2.450000
20
1.030000
0
VERTEX
8
0
10
-2.500000
20
1.080000
0
SEQEND
8
0
0
POLYLINE
8
0
66
1
40
0.016000
41
0.016000
0
VERTEX
8
0
10
-2.400000
20
1.030000
0
VERTEX
8
0
10
-2.450000
20
1.080000
0
SEQEND
8
0
0
POLYLINE
8
0
66
1
40
0.016000
41
0.016000
0
VERTEX
8
0
10
-2.350000
20
1.030000
0
VERTEX
8
0
10
-2.400000
20
1.080000
0
SEQEND
8
0
0
POLYLINE
8
0
66
1
40
0.016000
41
0.016000
0
VERTEX
8
0
10
-2.300000
20
1.030000
0
VERTEX
8
0
10
-2.350000
20
1.080000
0
SEQEND
8
0
0
POLYLINE
8
0
66
1
40
0.016000
41
0.016000
0
VERTEX
8
0
10
-2.400000
20
0.800000
0
VERTEX
8
0
10
-2.400000
20
0.900000
0
SEQEND
8
0
0
POLYLINE
8
0
66
1
40
0.016000
41
0.016000
0
VERTEX
8
0
10
-2.400000
20
1.200000
0
VERTEX
8
0
10
-2.400000
20
1.100000
0
SEQEND
8
0
0
TEXT
8
0
10
-2.642000
20
0.573000
40
0.120000
41
0.666667
1
C4
0
TEXT
8
0
10
-2.642000
20
0.768000
40
0.080000
41
1.000000
1
10u
0
POLYLINE
8
0
66
1
40
0.016000
41
0.016000
0
VERTEX
8
0
10
-2.200000
20
0.920000
0
VERTEX
8
0
10
-2.000000
20
0.920000
0
VERTEX
8
0
10
-2.000000
20
0.970000
0
VERTEX
8
0
10
-2.200000
20
0.970000
0
VERTEX
8
0
10
-2.200000
20
0.920000
0
SEQEND
8
0
0
POLYLINE
8
0
66
1
40
0.016000
41
0.016000
0
VERTEX
8
0
10
-2.200000
20
1.030000
0
VERTEX
8
0
10
-2.000000
20
1.030000
0
VERTEX
8
0
10
-2.000000
20
1.080000
0
VERTEX
8
0
10
-2.200000
20
1.080000
0
VERTEX
8
0
10
-2.200000
20
1.030000
0
SEQEND
8
0
0
POLYLINE
8
0
66
1
40
0.016000
41
0.016000
0
VERTEX
8
0
10
-2.100000
20
1.080000
0
VERTEX
8
0
10
-2.100000
20
1.100000
0
SEQEND
8
0
0
POLYLINE
8
0
66
1
40
0.016000
41
0.016000
0
VERTEX
8
0
10
-2.100000
20
0.920000
0
VERTEX
8
0
10
-2.100000
20
0.900000
0
SEQEND
8
0
0
POLYLINE
8
0
66
1
40
0.016000
41
0.016000
0
VERTEX
8
0
10
-2.150000
20
1.030000
0
VERTEX
8
0
10
-2.200000
20
1.080000
0
SEQEND
8
0
0
POLYLINE
8
0
66
1
40
0.016000
41
0.016000
0
VERTEX
8
0
10
-2.100000
20
1.030000
0
VERTEX
8
0
10
-2.150000
20
1.080000
0
SEQEND
8
0
0
POLYLINE
8
0
66
1
40
0.016000
41
0.016000
0
VERTEX
8
0
10
-2.050000
20
1.030000
0
VERTEX
8
0
10
-2.100000
20
1.080000
0
SEQEND
8
0
0
POLYLINE
8
0
66
1
40
0.016000
41
0.016000
0
VERTEX
8
0
10
-2.000000
20
1.030000
0
VERTEX
8
0
10
-2.050000
20
1.080000
0
SEQEND
8
0
0
POLYLINE
8
0
66
1
40
0.016000
41
0.016000
0
VERTEX
8
0
10
-2.100000
20
0.800000
0
VERTEX
8
0
10
-2.100000
20
0.900000
0
SEQEND
8
0
0
POLYLINE
8
0
66
1
40
0.016000
41
0.016000
0
VERTEX
8
0
10
-2.100000
20
1.200000
0
VERTEX
8
0
10
-2.100000
20
1.100000
0
SEQEND
8
0
0
TEXT
8
0
10
-2.342000
20
0.573000
40
0.120000
41
0.666667
1
C5
0
TEXT
8
0
10
-2.342000
20
0.768000
40
0.080000
41
1.000000
1
10u
0
CIRCLE
8
16384
10
-2.700000
20
2.200000
40
0.020000
0
CIRCLE
8
16384
10
-2.400000
20
1.800000
40
0.020000
0
CIRCLE
8
16384
10
-2.100000
20
1.400000
40
0.020000
0
POLYLINE
8
0
66
1
40
0.016000
41
0.016000
0
VERTEX
8
0
10
-2.400000
20
0.200000
0
VERTEX
8
0
10
-2.400000
20
0.100000
0
SEQEND
8
0
0
POLYLINE
8
0
66
1
40
0.016000
41
0.016000
0
VERTEX
8
0
10
-2.500000
20
0.100000
0
VERTEX
8
0
10
-2.300000
20
0.100000
0
SEQEND
8
0
0
POLYLINE
8
0
66
1
40
0.016000
41
0.016000
0
VERTEX
8
0
10
-2.450000
20
0.050000
0
VERTEX
8
0
10
-2.350000
20
0.050000
0
SEQEND
8
0
0
POLYLINE
8
0
66
1
40
0.016000
41
0.016000
0
VERTEX
8
0
10
-2.410000
20
0.000000
0
VERTEX
8
0
10
-2.390000
20
0.000000
0
SEQEND
8
0
0
CIRCLE
8
16384
10
-2.400000
20
0.300000
40
0.020000
0
POLYLINE
8
0
66
1
40
0.016000
41
0.016000
0
VERTEX
8
0
10
-4.950000
20
2.900000
0
VERTEX
8
0
10
-4.900000
20
3.000000
0
VERTEX
8
0
10
-4.850000
20
2.900000
0
VERTEX
8
0
10
-4.950000
20
2.900000
0
SEQEND
8
0
0
POLYLINE
8
0
66
1
40
0.016000
41
0.016000
0
VERTEX
8
0
10
-4.900000
20
2.800000
0
VERTEX
8
0
10
-4.900000
20
3.000000
0
SEQEND
8
0
0
CIRCLE
8
16384
10
-4.900000
20
2.200000
40
0.020000
0
CIRCLE
8
16384
10
-4.900000
20
1.800000
40
0.020000
0
CIRCLE
8
16384
10
0.260000
20
2.100000
40
0.040000
0
POLYLINE
8
0
66
1
40
0.016000
41
0.016000
0
VERTEX
8
0
10
0.220000
20
2.100000
0
VERTEX
8
0
10
0.100000
20
2.100000
0
SEQEND
8
0
0
TEXT
8
0
10
0.350000
20
2.060000
40
0.080000
41
1.000000
1
relay_sb
0
POLYLINE
8
0
66
1
40
0.016000
41
0.016000
0
VERTEX
8
0
10
-2.600000
20
2.900000
0
VERTEX
8
0
10
-2.000000
20
2.900000
0
VERTEX
8
0
10
-2.000000
20
3.100000
0
VERTEX
8
0
10
-2.600000
20
3.100000
0
VERTEX
8
0
10
-2.600000
20
2.900000
0
SEQEND
8
0
0
POLYLINE
8
0
66
1
40
0.016000
41
0.016000
0
VERTEX
8
0
10
-2.500000
20
2.970000
0
VERTEX
8
0
10
-2.500000
20
2.900000
0
SEQEND
8
0
0
CIRCLE
8
128
10
-2.400000
20
3.000000
40
0.030000
0
POLYLINE
8
0
66
1
40
0.016000
41
0.016000
0
VERTEX
8
0
10
-2.400000
20
2.970000
0
VERTEX
8
0
10
-2.400000
20
2.900000
0
SEQEND
8
0
0
CIRCLE
8
128
10
-2.300000
20
3.000000
40
0.030000
0
POLYLINE
8
0
66
1
40
0.016000
41
0.016000
0
VERTEX
8
0
10
-2.300000
20
2.970000
0
VERTEX
8
0
10
-2.300000
20
2.900000
0
SEQEND
8
0
0
CIRCLE
8
128
10
-2.200000
20
3.000000
40
0.030000
0
POLYLINE
8
0
66
1
40
0.016000
41
0.016000
0
VERTEX
8
0
10
-2.200000
20
2.970000
0
VERTEX
8
0
10
-2.200000
20
2.900000
0
SEQEND
8
0
0
CIRCLE
8
128
10
-2.100000
20
3.000000
40
0.030000
0
POLYLINE
8
0
66
1
40
0.016000
41
0.016000
0
VERTEX
8
0
10
-2.100000
20
2.970000
0
VERTEX
8
0
10
-2.100000
20
2.900000
0
SEQEND
8
0
0
CIRCLE
8
128
10
-2.500000
20
3.000000
40
0.030000
0
POLYLINE
8
0
66
1
40
0.016000
41
0.016000
0
VERTEX
8
0
10
-2.500000
20
2.700000
0
VERTEX
8
0
10
-2.500000
20
2.900000
0
SEQEND
8
0
0
TEXT
8
0
10
-2.510000
20
2.720000
40
0.080000
41
1.000000
50
90.000000
1
1
0
POLYLINE
8
0
66
1
40
0.016000
41
0.016000
0
VERTEX
8
0
10
-2.400000
20
2.700000
0
VERTEX
8
0
10
-2.400000
20
2.900000
0
SEQEND
8
0
0
TEXT
8
0
10
-2.410000
20
2.720000
40
0.080000
41
1.000000
50
90.000000
1
2
0
POLYLINE
8
0
66
1
40
0.016000
41
0.016000
0
VERTEX
8
0
10
-2.300000
20
2.700000
0
VERTEX
8
0
10
-2.300000
20
2.900000
0
SEQEND
8
0
0
TEXT
8
0
10
-2.310000
20
2.720000
40
0.080000
41
1.000000
50
90.000000
1
3
0
POLYLINE
8
0
66
1
40
0.016000
41
0.016000
0
VERTEX
8
0
10
-2.200000
20
2.700000
0
VERTEX
8
0
10
-2.200000
20
2.900000
0
SEQEND
8
0
0
TEXT
8
0
10
-2.210000
20
2.720000
40
0.080000
41
1.000000
50
90.000000
1
4
0
POLYLINE
8
0
66
1
40
0.016000
41
0.016000
0
VERTEX
8
0
10
-2.100000
20
2.700000
0
VERTEX
8
0
10
-2.100000
20
2.900000
0
SEQEND
8
0
0
TEXT
8
0
10
-2.110000
20
2.720000
40
0.080000
41
1.000000
50
90.000000
1
5
0
TEXT
8
0
10
-2.608000
20
3.323000
40
0.120000
41
0.666667
1
PROGRAM
0
TEXT
8
0
10
-2.608000
20
3.218000
40
0.080000
41
1.000000
1
CONN-H5
0
POLYLINE
8
0
66
1
40
0.016000
41
0.016000
0
VERTEX
8
0
10
-2.850000
20
2.800000
0
VERTEX
8
0
10
-2.800000
20
2.900000
0
VERTEX
8
0
10
-2.750000
20
2.800000
0
VERTEX
8
0
10
-2.850000
20
2.800000
0
SEQEND
8
0
0
POLYLINE
8
0
66
1
40
0.016000
41
0.016000
0
VERTEX
8
0
10
-2.800000
20
2.700000
0
VERTEX
8
0
10
-2.800000
20
2.900000
0
SEQEND
8
0
0
POLYLINE
8
0
66
1
40
0.016000
41
0.016000
0
VERTEX
8
0
10
-1.600000
20
3.100000
0
VERTEX
8
0
10
-1.600000
20
3.000000
0
SEQEND
8
0
0
POLYLINE
8
0
66
1
40
0.016000
41
0.016000
0
VERTEX
8
0
10
-1.700000
20
3.000000
0
VERTEX
8
0
10
-1.500000
20
3.000000
0
SEQEND
8
0
0
POLYLINE
8
0
66
1
40
0.016000
41
0.016000
0
VERTEX
8
0
10
-1.650000
20
2.950000
0
VERTEX
8
0
10
-1.550000
20
2.950000
0
SEQEND
8
0
0
POLYLINE
8
0
66
1
40
0.016000
41
0.016000
0
VERTEX
8
0
10
-1.610000
20
2.900000
0
VERTEX
8
0
10
-1.590000
20
2.900000
0
SEQEND
8
0
0
POLYLINE
8
0
66
1
40
0.016000
41
0.016000
0
VERTEX
8
0
10
0.200000
20
-2.200000
0
VERTEX
8
0
10
0.100000
20
-2.150000
0
VERTEX
8
0
10
0.150000
20
-2.100000
0
VERTEX
8
0
10
0.200000
20
-2.200000
0
SEQEND
8
0
0
POLYLINE
8
0
66
1
40
0.016000
41
0.016000
0
VERTEX
8
0
10
0.000000
20
-2.150000
0
VERTEX
8
0
10
0.050000
20
-2.150000
0
VERTEX
8
0
10
0.050000
20
-1.850000
0
VERTEX
8
0
10
0.000000
20
-1.850000
0
VERTEX
8
0
10
0.000000
20
-2.150000
0
SEQEND
8
0
0
POLYLINE
8
0
66
1
40
0.016000
41
0.016000
0
VERTEX
8
0
10
0.050000
20
-1.950000
0
VERTEX
8
0
10
0.200000
20
-1.800000
0
SEQEND
8
0
0
POLYLINE
8
0
66
1
40
0.016000
41
0.016000
0
VERTEX
8
0
10
0.050000
20
-2.050000
0
VERTEX
8
0
10
0.120000
20
-2.120000
0
SEQEND
8
0
0
POLYLINE
8
0
66
1
40
0.016000
41
0.016000
0
VERTEX
8
0
10
-0.100000
20
-2.000000
0
VERTEX
8
0
10
0.000000
20
-2.000000
0
SEQEND
8
0
0
POLYLINE
8
0
66
1
40
0.016000
41
0.016000
0
VERTEX
8
0
10
0.200000
20
-1.700000
0
VERTEX
8
0
10
0.200000
20
-1.800000
0
SEQEND
8
0
0
POLYLINE
8
0
66
1
40
0.016000
41
0.016000
0
VERTEX
8
0
10
0.200000
20
-2.300000
0
VERTEX
8
0
10
0.200000
20
-2.200000
0
SEQEND
8
0
0
TEXT
8
0
10
0.258000
20
-1.927000
40
0.120000
41
0.666667
1
Q3
0
TEXT
8
0
10
0.258000
20
-2.032000
40
0.080000
41
1.000000
1
BC849B
0
POLYLINE
8
0
66
1
40
0.016000
41
0.016000
0
VERTEX
8
0
10
1.500000
20
-2.200000
0
VERTEX
8
0
10
1.400000
20
-2.150000
0
VERTEX
8
0
10
1.450000
20
-2.100000
0
VERTEX
8
0
10
1.500000
20
-2.200000
0
SEQEND
8
0
0
POLYLINE
8
0
66
1
40
0.016000
41
0.016000
0
VERTEX
8
0
10
1.300000
20
-2.150000
0
VERTEX
8
0
10
1.350000
20
-2.150000
0
VERTEX
8
0
10
1.350000
20
-1.850000
0
VERTEX
8
0
10
1.300000
20
-1.850000
0
VERTEX
8
0
10
1.300000
20
-2.150000
0
SEQEND
8
0
0
POLYLINE
8
0
66
1
40
0.016000
41
0.016000
0
VERTEX
8
0
10
1.350000
20
-1.950000
0
VERTEX
8
0
10
1.500000
20
-1.800000
0
SEQEND
8
0
0
POLYLINE
8
0
66
1
40
0.016000
41
0.016000
0
VERTEX
8
0
10
1.350000
20
-2.050000
0
VERTEX
8
0
10
1.420000
20
-2.120000
0
SEQEND
8
0
0
POLYLINE
8
0
66
1
40
0.016000
41
0.016000
0
VERTEX
8
0
10
1.200000
20
-2.000000
0
VERTEX
8
0
10
1.300000
20
-2.000000
0
SEQEND
8
0
0
POLYLINE
8
0
66
1
40
0.016000
41
0.016000
0
VERTEX
8
0
10
1.500000
20
-1.700000
0
VERTEX
8
0
10
1.500000
20
-1.800000
0
SEQEND
8
0
0
POLYLINE
8
0
66
1
40
0.016000
41
0.016000
0
VERTEX
8
0
10
1.500000
20
-2.300000
0
VERTEX
8
0
10
1.500000
20
-2.200000
0
SEQEND
8
0
0
TEXT
8
0
10
1.558000
20
-1.927000
40
0.120000
41
0.666667
1
Q4
0
TEXT
8
0
10
1.558000
20
-2.032000
40
0.080000
41
1.000000
1
BC849B
0
POLYLINE
8
0
66
1
40
0.016000
41
0.016000
0
VERTEX
8
0
10
-0.700000
20
-2.040000
0
VERTEX
8
0
10
-0.400000
20
-2.040000
0
VERTEX
8
0
10
-0.400000
20
-1.960000
0
VERTEX
8
0
10
-0.700000
20
-1.960000
0
VERTEX
8
0
10
-0.700000
20
-2.040000
0
SEQEND
8
0
0
POLYLINE
8
0
66
1
40
0.016000
41
0.016000
0
VERTEX
8
0
10
-0.800000
20
-2.000000
0
VERTEX
8
0
10
-0.700000
20
-2.000000
0
SEQEND
8
0
0
POLYLINE
8
0
66
1
40
0.016000
41
0.016000
0
VERTEX
8
0
10
-0.300000
20
-2.000000
0
VERTEX
8
0
10
-0.400000
20
-2.000000
0
SEQEND
8
0
0
TEXT
8
0
10
-0.708000
20
-1.937000
40
0.120000
41
0.666667
1
R6
0
TEXT
8
0
10
-0.708000
20
-2.138000
40
0.080000
41
1.000000
1
10k
0
POLYLINE
8
0
66
1
40
0.016000
41
0.016000
0
VERTEX
8
0
10
-0.700000
20
-2.540000
0
VERTEX
8
0
10
-0.400000
20
-2.540000
0
VERTEX
8
0
10
-0.400000
20
-2.460000
0
VERTEX
8
0
10
-0.700000
20
-2.460000
0
VERTEX
8
0
10
-0.700000
20
-2.540000
0
SEQEND
8
0
0
POLYLINE
8
0
66
1
40
0.016000
41
0.016000
0
VERTEX
8
0
10
-0.800000
20
-2.500000
0
VERTEX
8
0
10
-0.700000
20
-2.500000
0
SEQEND
8
0
0
POLYLINE
8
0
66
1
40
0.016000
41
0.016000
0
VERTEX
8
0
10
-0.300000
20
-2.500000
0
VERTEX
8
0
10
-0.400000
20
-2.500000
0
SEQEND
8
0
0
TEXT
8
0
10
-0.708000
20
-2.437000
40
0.120000
41
0.666667
1
R7
0
TEXT
8
0
10
-0.708000
20
-2.638000
40
0.080000
41
1.000000
1
10k
0
POLYLINE
8
0
66
1
40
0.016000
41
0.016000
0
VERTEX
8
0
10
0.900000
20
-3.100000
0
VERTEX
8
0
10
0.900000
20
-3.200000
0
SEQEND
8
0
0
POLYLINE
8
0
66
1
40
0.016000
41
0.016000
0
VERTEX
8
0
10
0.800000
20
-3.200000
0
VERTEX
8
0
10
1.000000
20
-3.200000
0
SEQEND
8
0
0
POLYLINE
8
0
66
1
40
0.016000
41
0.016000
0
VERTEX
8
0
10
0.850000
20
-3.250000
0
VERTEX
8
0
10
0.950000
20
-3.250000
0
SEQEND
8
0
0
POLYLINE
8
0
66
1
40
0.016000
41
0.016000
0
VERTEX
8
0
10
0.890000
20
-3.300000
0
VERTEX
8
0
10
0.910000
20
-3.300000
0
SEQEND
8
0
0
CIRCLE
8
16384
10
0.900000
20
-2.900000
40
0.020000
0
CIRCLE
8
16384
10
-1.160000
20
-2.000000
40
0.040000
0
POLYLINE
8
0
66
1
40
0.016000
41
0.016000
0
VERTEX
8
0
10
-1.120000
20
-2.000000
0
VERTEX
8
0
10
-1.000000
20
-2.000000
0
SEQEND
8
0
0
TEXT
8
0
10
-1.410000
20
-2.040000
40
0.080000
41
1.000000
1
T1
0
CIRCLE
8
16384
10
-1.160000
20
-2.500000
40
0.040000
0
POLYLINE
8
0
66
1
40
0.016000
41
0.016000
0
VERTEX
8
0
10
-1.120000
20
-2.500000
0
VERTEX
8
0
10
-1.000000
20
-2.500000
0
SEQEND
8
0
0
TEXT
8
0
10
-1.410000
20
-2.540000
40
0.080000
41
1.000000
1
T2
0
CIRCLE
8
16384
10
3.100000
20
-0.740000
40
0.040000
0
POLYLINE
8
0
66
1
40
0.016000
41
0.016000
0
VERTEX
8
0
10
3.100000
20
-0.780000
0
VERTEX
8
0
10
3.100000
20
-0.900000
0
SEQEND
8
0
0
TEXT
8
0
10
3.140000
20
-0.650000
40
0.080000
41
1.000000
50
90.000000
1
12V
0
CIRCLE
8
128
10
2.970000
20
-1.700000
40
0.230000
0
POLYLINE
8
0
66
1
40
0.016000
41
0.016000
0
VERTEX
8
0
10
3.040000
20
-1.700000
0
VERTEX
8
0
10
2.940000
20
-1.670000
0
VERTEX
8
0
10
2.940000
20
-1.730000
0
VERTEX
8
0
10
3.040000
20
-1.700000
0
SEQEND
8
0
0
POLYLINE
8
0
66
1
40
0.016000
41
0.016000
0
VERTEX
8
0
10
2.850000
20
-1.850000
0
VERTEX
8
0
10
2.900000
20
-1.850000
0
VERTEX
8
0
10
2.900000
20
-1.550000
0
VERTEX
8
0
10
2.850000
20
-1.550000
0
VERTEX
8
0
10
2.850000
20
-1.850000
0
SEQEND
8
0
0
POLYLINE
8
0
66
1
40
0.016000
41
0.016000
0
VERTEX
8
0
10
2.800000
20
-1.600000
0
VERTEX
8
0
10
2.800000
20
-1.800000
0
SEQEND
8
0
0
POLYLINE
8
0
66
1
40
0.016000
41
0.016000
0
VERTEX
8
0
10
2.700000
20
-1.800000
0
VERTEX
8
0
10
2.800000
20
-1.800000
0
SEQEND
8
0
0
POLYLINE
8
0
66
1
40
0.016000
41
0.016000
0
VERTEX
8
0
10
2.900000
20
-1.600000
0
VERTEX
8
0
10
3.000000
20
-1.600000
0
SEQEND
8
0
0
POLYLINE
8
0
66
1
40
0.016000
41
0.016000
0
VERTEX
8
0
10
2.900000
20
-1.800000
0
VERTEX
8
0
10
3.000000
20
-1.800000
0
SEQEND
8
0
0
POLYLINE
8
0
66
1
40
0.016000
41
0.016000
0
VERTEX
8
0
10
2.900000
20
-1.700000
0
VERTEX
8
0
10
2.940000
20
-1.700000
0
SEQEND
8
0
0
POLYLINE
8
0
66
1
40
0.016000
41
0.016000
0
VERTEX
8
0
10
3.000000
20
-1.800000
0
VERTEX
8
0
10
3.100000
20
-1.800000
0
SEQEND
8
0
0
POLYLINE
8
0
66
1
40
0.016000
41
0.016000
0
VERTEX
8
0
10
3.100000
20
-1.600000
0
VERTEX
8
0
10
3.000000
20
-1.600000
0
SEQEND
8
0
0
POLYLINE
8
0
66
1
40
0.016000
41
0.016000
0
VERTEX
8
0
10
3.040000
20
-1.700000
0
VERTEX
8
0
10
3.040000
20
-1.800000
0
SEQEND
8
0
0
POLYLINE
8
0
66
1
40
0.016000
41
0.016000
0
VERTEX
8
0
10
3.070000
20
-1.670000
0
VERTEX
8
0
10
3.130000
20
-1.670000
0
VERTEX
8
0
10
3.100000
20
-1.720000
0
VERTEX
8
0
10
3.070000
20
-1.670000
0
SEQEND
8
0
0
POLYLINE
8
0
66
1
40
0.016000
41
0.016000
0
VERTEX
8
0
10
3.070000
20
-1.730000
0
VERTEX
8
0
10
3.130000
20
-1.730000
0
VERTEX
8
0
10
3.150000
20
-1.710000
0
SEQEND
8
0
0
POLYLINE
8
0
66
1
40
0.016000
41
0.016000
0
VERTEX
8
0
10
3.050000
20
-1.750000
0
VERTEX
8
0
10
3.070000
20
-1.730000
0
SEQEND
8
0
0
POLYLINE
8
0
66
1
40
0.016000
41
0.016000
0
VERTEX
8
0
10
3.100000
20
-1.600000
0
VERTEX
8
0
10
3.100000
20
-1.670000
0
SEQEND
8
0
0
POLYLINE
8
0
66
1
40
0.016000
41
0.016000
0
VERTEX
8
0
10
3.100000
20
-1.730000
0
VERTEX
8
0
10
3.100000
20
-1.800000
0
SEQEND
8
0
0
POLYLINE
8
0
66
1
40
0.016000
41
0.016000
0
VERTEX
8
0
10
3.100000
20
-1.600000
0
VERTEX
8
0
10
3.100000
20
-1.510000
0
SEQEND
8
0
0
POLYLINE
8
0
66
1
40
0.016000
41
0.016000
0
VERTEX
8
0
10
3.100000
20
-1.800000
0
VERTEX
8
0
10
3.100000
20
-1.900000
0
SEQEND
8
0
0
POLYLINE
8
0
66
1
40
0.016000
41
0.016000
0
VERTEX
8
0
10
3.100000
20
-1.400000
0
VERTEX
8
0
10
3.100000
20
-1.500000
0
SEQEND
8
0
0
POLYLINE
8
0
66
1
40
0.016000
41
0.016000
0
VERTEX
8
0
10
2.600000
20
-1.800000
0
VERTEX
8
0
10
2.700000
20
-1.800000
0
SEQEND
8
0
0
POLYLINE
8
0
66
1
40
0.016000
41
0.016000
0
VERTEX
8
0
10
3.100000
20
-2.000000
0
VERTEX
8
0
10
3.100000
20
-1.900000
0
SEQEND
8
0
0
TEXT
8
0
10
3.258000
20
-1.597000
40
0.120000
41
0.666667
1
Q1
0
TEXT
8
0
10
3.258000
20
-1.702000
40
0.080000
41
1.000000
1
IRF4905
0
CIRCLE
8
128
10
2.970000
20
-2.700000
40
0.230000
0
POLYLINE
8
0
66
1
40
0.016000
41
0.016000
0
VERTEX
8
0
10
3.040000
20
-2.700000
0
VERTEX
8
0
10
2.940000
20
-2.670000
0
VERTEX
8
0
10
2.940000
20
-2.730000
0
VERTEX
8
0
10
3.040000
20
-2.700000
0
SEQEND
8
0
0
POLYLINE
8
0
66
1
40
0.016000
41
0.016000
0
VERTEX
8
0
10
2.850000
20
-2.850000
0
VERTEX
8
0
10
2.900000
20
-2.850000
0
VERTEX
8
0
10
2.900000
20
-2.550000
0
VERTEX
8
0
10
2.850000
20
-2.550000
0
VERTEX
8
0
10
2.850000
20
-2.850000
0
SEQEND
8
0
0
POLYLINE
8
0
66
1
40
0.016000
41
0.016000
0
VERTEX
8
0
10
2.800000
20
-2.600000
0
VERTEX
8
0
10
2.800000
20
-2.800000
0
SEQEND
8
0
0
POLYLINE
8
0
66
1
40
0.016000
41
0.016000
0
VERTEX
8
0
10
2.700000
20
-2.800000
0
VERTEX
8
0
10
2.800000
20
-2.800000
0
SEQEND
8
0
0
POLYLINE
8
0
66
1
40
0.016000
41
0.016000
0
VERTEX
8
0
10
2.900000
20
-2.600000
0
VERTEX
8
0
10
3.000000
20
-2.600000
0
SEQEND
8
0
0
POLYLINE
8
0
66
1
40
0.016000
41
0.016000
0
VERTEX
8
0
10
2.900000
20
-2.800000
0
VERTEX
8
0
10
3.000000
20
-2.800000
0
SEQEND
8
0
0
POLYLINE
8
0
66
1
40
0.016000
41
0.016000
0
VERTEX
8
0
10
2.900000
20
-2.700000
0
VERTEX
8
0
10
2.940000
20
-2.700000
0
SEQEND
8
0
0
POLYLINE
8
0
66
1
40
0.016000
41
0.016000
0
VERTEX
8
0
10
3.000000
20
-2.800000
0
VERTEX
8
0
10
3.100000
20
-2.800000
0
SEQEND
8
0
0
POLYLINE
8
0
66
1
40
0.016000
41
0.016000
0
VERTEX
8
0
10
3.100000
20
-2.600000
0
VERTEX
8
0
10
3.000000
20
-2.600000
0
SEQEND
8
0
0
POLYLINE
8
0
66
1
40
0.016000
41
0.016000
0
VERTEX
8
0
10
3.040000
20
-2.700000
0
VERTEX
8
0
10
3.040000
20
-2.800000
0
SEQEND
8
0
0
POLYLINE
8
0
66
1
40
0.016000
41
0.016000
0
VERTEX
8
0
10
3.070000
20
-2.670000
0
VERTEX
8
0
10
3.130000
20
-2.670000
0
VERTEX
8
0
10
3.100000
20
-2.720000
0
VERTEX
8
0
10
3.070000
20
-2.670000
0
SEQEND
8
0
0
POLYLINE
8
0
66
1
40
0.016000
41
0.016000
0
VERTEX
8
0
10
3.070000
20
-2.730000
0
VERTEX
8
0
10
3.130000
20
-2.730000
0
VERTEX
8
0
10
3.150000
20
-2.710000
0
SEQEND
8
0
0
POLYLINE
8
0
66
1
40
0.016000
41
0.016000
0
VERTEX
8
0
10
3.050000
20
-2.750000
0
VERTEX
8
0
10
3.070000
20
-2.730000
0
SEQEND
8
0
0
POLYLINE
8
0
66
1
40
0.016000
41
0.016000
0
VERTEX
8
0
10
3.100000
20
-2.600000
0
VERTEX
8
0
10
3.100000
20
-2.670000
0
SEQEND
8
0
0
POLYLINE
8
0
66
1
40
0.016000
41
0.016000
0
VERTEX
8
0
10
3.100000
20
-2.730000
0
VERTEX
8
0
10
3.100000
20
-2.800000
0
SEQEND
8
0
0
POLYLINE
8
0
66
1
40
0.016000
41
0.016000
0
VERTEX
8
0
10
3.100000
20
-2.600000
0
VERTEX
8
0
10
3.100000
20
-2.510000
0
SEQEND
8
0
0
POLYLINE
8
0
66
1
40
0.016000
41
0.016000
0
VERTEX
8
0
10
3.100000
20
-2.800000
0
VERTEX
8
0
10
3.100000
20
-2.900000
0
SEQEND
8
0
0
POLYLINE
8
0
66
1
40
0.016000
41
0.016000
0
VERTEX
8
0
10
3.100000
20
-2.400000
0
VERTEX
8
0
10
3.100000
20
-2.500000
0
SEQEND
8
0
0
POLYLINE
8
0
66
1
40
0.016000
41
0.016000
0
VERTEX
8
0
10
2.600000
20
-2.800000
0
VERTEX
8
0
10
2.700000
20
-2.800000
0
SEQEND
8
0
0
POLYLINE
8
0
66
1
40
0.016000
41
0.016000
0
VERTEX
8
0
10
3.100000
20
-3.000000
0
VERTEX
8
0
10
3.100000
20
-2.900000
0
SEQEND
8
0
0
TEXT
8
0
10
3.258000
20
-2.597000
40
0.120000
41
0.666667
1
Q2
0
TEXT
8
0
10
3.258000
20
-2.702000
40
0.080000
41
1.000000
1
IRF4905
0
CIRCLE
8
16384
10
3.100000
20
-1.300000
40
0.020000
0
POLYLINE
8
0
66
1
40
0.016000
41
0.016000
0
VERTEX
8
0
10
0.760000
20
-1.300000
0
VERTEX
8
0
10
0.840000
20
-1.300000
0
VERTEX
8
0
10
0.840000
20
-1.000000
0
VERTEX
8
0
10
0.760000
20
-1.000000
0
VERTEX
8
0
10
0.760000
20
-1.300000
0
SEQEND
8
0
0
POLYLINE
8
0
66
1
40
0.016000
41
0.016000
0
VERTEX
8
0
10
0.800000
20
-1.400000
0
VERTEX
8
0
10
0.800000
20
-1.300000
0
SEQEND
8
0
0
POLYLINE
8
0
66
1
40
0.016000
41
0.016000
0
VERTEX
8
0
10
0.800000
20
-0.900000
0
VERTEX
8
0
10
0.800000
20
-1.000000
0
SEQEND
8
0
0
TEXT
8
0
10
0.898000
20
-1.127000
40
0.120000
41
0.666667
1
R8
0
TEXT
8
0
10
0.898000
20
-1.232000
40
0.080000
41
1.000000
1
4.7k
0
POLYLINE
8
0
66
1
40
0.016000
41
0.016000
0
VERTEX
8
0
10
1.760000
20
-1.300000
0
VERTEX
8
0
10
1.840000
20
-1.300000
0
VERTEX
8
0
10
1.840000
20
-1.000000
0
VERTEX
8
0
10
1.760000
20
-1.000000
0
VERTEX
8
0
10
1.760000
20
-1.300000
0
SEQEND
8
0
0
POLYLINE
8
0
66
1
40
0.016000
41
0.016000
0
VERTEX
8
0
10
1.800000
20
-1.400000
0
VERTEX
8
0
10
1.800000
20
-1.300000
0
SEQEND
8
0
0
POLYLINE
8
0
66
1
40
0.016000
41
0.016000
0
VERTEX
8
0
10
1.800000
20
-0.900000
0
VERTEX
8
0
10
1.800000
20
-1.000000
0
SEQEND
8
0
0
TEXT
8
0
10
1.898000
20
-1.127000
40
0.120000
41
0.666667
1
R9
0
TEXT
8
0
10
1.898000
20
-1.232000
40
0.080000
41
1.000000
1
4.7k
0
CIRCLE
8
16384
10
1.800000
20
-0.800000
40
0.020000
0
CIRCLE
8
16384
10
1.800000
20
-1.500000
40
0.020000
0
CIRCLE
8
16384
10
0.800000
20
-1.600000
40
0.020000
0
POLYLINE
8
0
66
1
40
0.016000
41
0.016000
0
VERTEX
8
0
10
4.600000
20
-1.700000
0
VERTEX
8
0
10
4.800000
20
-1.700000
0
VERTEX
8
0
10
4.800000
20
-1.200000
0
VERTEX
8
0
10
4.600000
20
-1.200000
0
VERTEX
8
0
10
4.600000
20
-1.700000
0
SEQEND
8
0
0
POLYLINE
8
0
66
1
40
0.016000
41
0.016000
0
VERTEX
8
0
10
4.670000
20
-1.300000
0
VERTEX
8
0
10
4.600000
20
-1.300000
0
SEQEND
8
0
0
CIRCLE
8
128
10
4.700000
20
-1.400000
40
0.030000
0
POLYLINE
8
0
66
1
40
0.016000
41
0.016000
0
VERTEX
8
0
10
4.670000
20
-1.400000
0
VERTEX
8
0
10
4.600000
20
-1.400000
0
SEQEND
8
0
0
CIRCLE
8
128
10
4.700000
20
-1.500000
40
0.030000
0
POLYLINE
8
0
66
1
40
0.016000
41
0.016000
0
VERTEX
8
0
10
4.670000
20
-1.500000
0
VERTEX
8
0
10
4.600000
20
-1.500000
0
SEQEND
8
0
0
CIRCLE
8
128
10
4.700000
20
-1.600000
40
0.030000
0
POLYLINE
8
0
66
1
40
0.016000
41
0.016000
0
VERTEX
8
0
10
4.670000
20
-1.600000
0
VERTEX
8
0
10
4.600000
20
-1.600000
0
SEQEND
8
0
0
CIRCLE
8
128
10
4.700000
20
-1.300000
40
0.030000
0
POLYLINE
8
0
66
1
40
0.016000
41
0.016000
0
VERTEX
8
0
10
4.400000
20
-1.300000
0
VERTEX
8
0
10
4.600000
20
-1.300000
0
SEQEND
8
0
0
TEXT
8
0
10
4.420000
20
-1.290000
40
0.080000
41
1.000000
1
1
0
POLYLINE
8
0
66
1
40
0.016000
41
0.016000
0
VERTEX
8
0
10
4.400000
20
-1.400000
0
VERTEX
8
0
10
4.600000
20
-1.400000
0
SEQEND
8
0
0
TEXT
8
0
10
4.420000
20
-1.390000
40
0.080000
41
1.000000
1
2
0
POLYLINE
8
0
66
1
40
0.016000
41
0.016000
0
VERTEX
8
0
10
4.400000
20
-1.500000
0
VERTEX
8
0
10
4.600000
20
-1.500000
0
SEQEND
8
0
0
TEXT
8
0
10
4.420000
20
-1.490000
40
0.080000
41
1.000000
1
3
0
POLYLINE
8
0
66
1
40
0.016000
41
0.016000
0
VERTEX
8
0
10
4.400000
20
-1.600000
0
VERTEX
8
0
10
4.600000
20
-1.600000
0
SEQEND
8
0
0
TEXT
8
0
10
4.420000
20
-1.590000
40
0.080000
41
1.000000
1
4
0
TEXT
8
0
10
4.592000
20
-1.177000
40
0.120000
41
0.666667
1
J3
0
TEXT
8
0
10
4.592000
20
-1.798000
40
0.080000
41
1.000000
1
SIL-100-04
0
POLYLINE
8
0
66
1
40
0.016000
41
0.016000
0
VERTEX
8
0
10
4.600000
20
-2.500000
0
VERTEX
8
0
10
4.800000
20
-2.500000
0
VERTEX
8
0
10
4.800000
20
-2.000000
0
VERTEX
8
0
10
4.600000
20
-2.000000
0
VERTEX
8
0
10
4.600000
20
-2.500000
0
SEQEND
8
0
0
POLYLINE
8
0
66
1
40
0.016000
41
0.016000
0
VERTEX
8
0
10
4.670000
20
-2.100000
0
VERTEX
8
0
10
4.600000
20
-2.100000
0
SEQEND
8
0
0
CIRCLE
8
128
10
4.700000
20
-2.200000
40
0.030000
0
POLYLINE
8
0
66
1
40
0.016000
41
0.016000
0
VERTEX
8
0
10
4.670000
20
-2.200000
0
VERTEX
8
0
10
4.600000
20
-2.200000
0
SEQEND
8
0
0
CIRCLE
8
128
10
4.700000
20
-2.300000
40
0.030000
0
POLYLINE
8
0
66
1
40
0.016000
41
0.016000
0
VERTEX
8
0
10
4.670000
20
-2.300000
0
VERTEX
8
0
10
4.600000
20
-2.300000
0
SEQEND
8
0
0
CIRCLE
8
128
10
4.700000
20
-2.400000
40
0.030000
0
POLYLINE
8
0
66
1
40
0.016000
41
0.016000
0
VERTEX
8
0
10
4.670000
20
-2.400000
0
VERTEX
8
0
10
4.600000
20
-2.400000
0
SEQEND
8
0
0
CIRCLE
8
128
10
4.700000
20
-2.100000
40
0.030000
0
POLYLINE
8
0
66
1
40
0.016000
41
0.016000
0
VERTEX
8
0
10
4.400000
20
-2.100000
0
VERTEX
8
0
10
4.600000
20
-2.100000
0
SEQEND
8
0
0
TEXT
8
0
10
4.420000
20
-2.090000
40
0.080000
41
1.000000
1
1
0
POLYLINE
8
0
66
1
40
0.016000
41
0.016000
0
VERTEX
8
0
10
4.400000
20
-2.200000
0
VERTEX
8
0
10
4.600000
20
-2.200000
0
SEQEND
8
0
0
TEXT
8
0
10
4.420000
20
-2.190000
40
0.080000
41
1.000000
1
2
0
POLYLINE
8
0
66
1
40
0.016000
41
0.016000
0
VERTEX
8
0
10
4.400000
20
-2.300000
0
VERTEX
8
0
10
4.600000
20
-2.300000
0
SEQEND
8
0
0
TEXT
8
0
10
4.420000
20
-2.290000
40
0.080000
41
1.000000
1
3
0
POLYLINE
8
0
66
1
40
0.016000
41
0.016000
0
VERTEX
8
0
10
4.400000
20
-2.400000
0
VERTEX
8
0
10
4.600000
20
-2.400000
0
SEQEND
8
0
0
TEXT
8
0
10
4.420000
20
-2.390000
40
0.080000
41
1.000000
1
4
0
TEXT
8
0
10
4.592000
20
-1.977000
40
0.120000
41
0.666667
1
J4
0
TEXT
8
0
10
4.592000
20
-2.598000
40
0.080000
41
1.000000
1
SIL-100-04
0
CIRCLE
8
16384
10
3.900000
20
-1.500000
40
0.020000
0
CIRCLE
8
16384
10
3.900000
20
-2.300000
40
0.020000
0
CIRCLE
8
16384
10
4.300000
20
-1.600000
40
0.020000
0
CIRCLE
8
16384
10
4.300000
20
-2.200000
40
0.020000
0
POLYLINE
8
0
66
1
40
0.016000
41
0.016000
0
VERTEX
8
0
10
4.300000
20
-2.900000
0
VERTEX
8
0
10
4.300000
20
-3.000000
0
SEQEND
8
0
0
POLYLINE
8
0
66
1
40
0.016000
41
0.016000
0
VERTEX
8
0
10
4.200000
20
-3.000000
0
VERTEX
8
0
10
4.400000
20
-3.000000
0
SEQEND
8
0
0
POLYLINE
8
0
66
1
40
0.016000
41
0.016000
0
VERTEX
8
0
10
4.250000
20
-3.050000
0
VERTEX
8
0
10
4.350000
20
-3.050000
0
SEQEND
8
0
0
POLYLINE
8
0
66
1
40
0.016000
41
0.016000
0
VERTEX
8
0
10
4.290000
20
-3.100000
0
VERTEX
8
0
10
4.310000
20
-3.100000
0
SEQEND
8
0
0
CIRCLE
8
16384
10
4.300000
20
-2.400000
40
0.020000
0
CIRCLE
8
16384
10
4.300000
20
-1.400000
40
0.020000
0
CIRCLE
8
16384
10
4.300000
20
-0.800000
40
0.020000
0
POLYLINE
8
0
66
1
40
0.016000
41
0.016000
0
VERTEX
8
0
10
3.730000
20
-1.100000
0
VERTEX
8
0
10
3.780000
20
-1.100000
0
VERTEX
8
0
10
3.780000
20
-0.900000
0
VERTEX
8
0
10
3.730000
20
-0.900000
0
VERTEX
8
0
10
3.730000
20
-1.100000
0
SEQEND
8
0
0
POLYLINE
8
0
66
1
40
0.016000
41
0.016000
0
VERTEX
8
0
10
3.620000
20
-1.100000
0
VERTEX
8
0
10
3.670000
20
-1.100000
0
VERTEX
8
0
10
3.670000
20
-0.900000
0
VERTEX
8
0
10
3.620000
20
-0.900000
0
VERTEX
8
0
10
3.620000
20
-1.100000
0
SEQEND
8
0
0
POLYLINE
8
0
66
1
40
0.016000
41
0.016000
0
VERTEX
8
0
10
3.620000
20
-1.000000
0
VERTEX
8
0
10
3.600000
20
-1.000000
0
SEQEND
8
0
0
POLYLINE
8
0
66
1
40
0.016000
41
0.016000
0
VERTEX
8
0
10
3.780000
20
-1.000000
0
VERTEX
8
0
10
3.800000
20
-1.000000
0
SEQEND
8
0
0
POLYLINE
8
0
66
1
40
0.016000
41
0.016000
0
VERTEX
8
0
10
3.670000
20
-1.050000
0
VERTEX
8
0
10
3.620000
20
-1.100000
0
SEQEND
8
0
0
POLYLINE
8
0
66
1
40
0.016000
41
0.016000
0
VERTEX
8
0
10
3.670000
20
-1.000000
0
VERTEX
8
0
10
3.620000
20
-1.050000
0
SEQEND
8
0
0
POLYLINE
8
0
66
1
40
0.016000
41
0.016000
0
VERTEX
8
0
10
3.670000
20
-0.950000
0
VERTEX
8
0
10
3.620000
20
-1.000000
0
SEQEND
8
0
0
POLYLINE
8
0
66
1
40
0.016000
41
0.016000
0
VERTEX
8
0
10
3.670000
20
-0.900000
0
VERTEX
8
0
10
3.620000
20
-0.950000
0
SEQEND
8
0
0
POLYLINE
8
0
66
1
40
0.016000
41
0.016000
0
VERTEX
8
0
10
3.900000
20
-1.000000
0
VERTEX
8
0
10
3.800000
20
-1.000000
0
SEQEND
8
0
0
POLYLINE
8
0
66
1
40
0.016000
41
0.016000
0
VERTEX
8
0
10
3.500000
20
-1.000000
0
VERTEX
8
0
10
3.600000
20
-1.000000
0
SEQEND
8
0
0
TEXT
8
0
10
3.592000
20
-0.877000
40
0.120000
41
0.666667
1
C6
0
TEXT
8
0
10
3.592000
20
-1.198000
40
0.080000
41
1.000000
1
1000u
0
CIRCLE
8
16384
10
4.300000
20
-1.000000
40
0.020000
0
CIRCLE
8
16384
10
3.100000
20
-1.000000
40
0.020000
0
CIRCLE
8
16384
10
-1.860000
20
1.700000
40
0.040000
0
POLYLINE
8
0
66
1
40
0.016000
41
0.016000
0
VERTEX
8
0
10
-1.820000
20
1.700000
0
VERTEX
8
0
10
-1.700000
20
1.700000
0
SEQEND
8
0
0
TEXT
8
0
10
-2.110000
20
1.660000
40
0.080000
41
1.000000
1
T1
0
CIRCLE
8
16384
10
0.260000
20
2.000000
40
0.040000
0
POLYLINE
8
0
66
1
40
0.016000
41
0.016000
0
VERTEX
8
0
10
0.220000
20
2.000000
0
VERTEX
8
0
10
0.100000
20
2.000000
0
SEQEND
8
0
0
TEXT
8
0
10
0.350000
20
1.960000
40
0.080000
41
1.000000
1
T2
0
POLYLINE
8
0
66
1
40
0.016000
41
0.016000
0
VERTEX
8
0
10
-4.000000
20
-1.900000
0
VERTEX
8
0
10
-3.400000
20
-1.900000
0
VERTEX
8
0
10
-3.400000
20
-1.400000
0
VERTEX
8
0
10
-4.000000
20
-1.400000
0
VERTEX
8
0
10
-4.000000
20
-1.900000
0
SEQEND
8
0
0
POLYLINE
8
0
66
1
40
0.020000
41
0.020000
0
VERTEX
8
0
10
-3.810000
20
-1.780000
0
VERTEX
8
0
10
-3.900000
20
-1.500000
0
SEQEND
8
0
0
CIRCLE
8
128
10
-3.800000
20
-1.810000
40
0.020000
0
CIRCLE
8
128
10
-3.800000
20
-1.470000
40
0.020000
0
POLYLINE
8
0
66
1
40
0.016000
41
0.016000
0
VERTEX
8
0
10
-3.800000
20
-1.450000
0
VERTEX
8
0
10
-3.800000
20
-1.400000
0
SEQEND
8
0
0
POLYLINE
8
0
66
1
40
0.016000
41
0.016000
0
VERTEX
8
0
10
-3.800000
20
-1.900000
0
VERTEX
8
0
10
-3.800000
20
-1.830000
0
SEQEND
8
0
0
POLYLINE
8
0
66
1
40
0.016000
41
0.016000
0
VERTEX
8
0
10
-3.500000
20
-1.550000
0
VERTEX
8
0
10
-3.498000
20
-1.539000
0
VERTEX
8
0
10
-3.491000
20
-1.530000
0
VERTEX
8
0
10
-3.482000
20
-1.521000
0
VERTEX
8
0
10
-3.469000
20
-1.514000
0
VERTEX
8
0
10
-3.454000
20
-1.508000
0
VERTEX
8
0
10
-3.437000
20
-1.504000
0
VERTEX
8
0
10
-3.419000
20
-1.501000
0
VERTEX
8
0
10
-3.400000
20
-1.500000
0
SEQEND
8
0
0
POLYLINE
8
0
66
1
40
0.016000
41
0.016000
0
VERTEX
8
0
10
-3.500000
20
-1.550000
0
VERTEX
8
0
10
-3.498000
20
-1.558000
0
VERTEX
8
0
10
-3.491000
20
-1.566000
0
VERTEX
8
0
10
-3.482000
20
-1.575000
0
VERTEX
8
0
10
-3.469000
20
-1.582000
0
VERTEX
8
0
10
-3.454000
20
-1.589000
0
VERTEX
8
0
10
-3.437000
20
-1.595000
0
VERTEX
8
0
10
-3.419000
20
-1.599000
0
VERTEX
8
0
10
-3.400000
20
-1.600000
0
SEQEND
8
0
0
POLYLINE
8
0
66
1
40
0.016000
41
0.016000
0
VERTEX
8
0
10
-3.500000
20
-1.650000
0
VERTEX
8
0
10
-3.498000
20
-1.639000
0
VERTEX
8
0
10
-3.491000
20
-1.630000
0
VERTEX
8
0
10
-3.482000
20
-1.621000
0
VERTEX
8
0
10
-3.469000
20
-1.614000
0
VERTEX
8
0
10
-3.454000
20
-1.608000
0
VERTEX
8
0
10
-3.437000
20
-1.604000
0
VERTEX
8
0
10
-3.419000
20
-1.601000
0
VERTEX
8
0
10
-3.400000
20
-1.600000
0
SEQEND
8
0
0
POLYLINE
8
0
66
1
40
0.016000
41
0.016000
0
VERTEX
8
0
10
-3.500000
20
-1.650000
0
VERTEX
8
0
10
-3.498000
20
-1.658000
0
VERTEX
8
0
10
-3.491000
20
-1.666000
0
VERTEX
8
0
10
-3.482000
20
-1.675000
0
VERTEX
8
0
10
-3.469000
20
-1.682000
0
VERTEX
8
0
10
-3.454000
20
-1.689000
0
VERTEX
8
0
10
-3.437000
20
-1.695000
0
VERTEX
8
0
10
-3.419000
20
-1.699000
0
VERTEX
8
0
10
-3.400000
20
-1.700000
0
SEQEND
8
0
0
POLYLINE
8
0
66
1
40
0.016000
41
0.016000
0
VERTEX
8
0
10
-3.500000
20
-1.750000
0
VERTEX
8
0
10
-3.498000
20
-1.739000
0
VERTEX
8
0
10
-3.491000
20
-1.730000
0
VERTEX
8
0
10
-3.482000
20
-1.721000
0
VERTEX
8
0
10
-3.469000
20
-1.714000
0
VERTEX
8
0
10
-3.454000
20
-1.708000
0
VERTEX
8
0
10
-3.437000
20
-1.704000
0
VERTEX
8
0
10
-3.419000
20
-1.701000
0
VERTEX
8
0
10
-3.400000
20
-1.700000
0
SEQEND
8
0
0
POLYLINE
8
0
66
1
40
0.016000
41
0.016000
0
VERTEX
8
0
10
-3.500000
20
-1.750000
0
VERTEX
8
0
10
-3.498000
20
-1.758000
0
VERTEX
8
0
10
-3.491000
20
-1.766000
0
VERTEX
8
0
10
-3.482000
20
-1.775000
0
VERTEX
8
0
10
-3.469000
20
-1.782000
0
VERTEX
8
0
10
-3.454000
20
-1.789000
0
VERTEX
8
0
10
-3.437000
20
-1.795000
0
VERTEX
8
0
10
-3.419000
20
-1.799000
0
VERTEX
8
0
10
-3.400000
20
-1.800000
0
SEQEND
8
0
0
POLYLINE
8
0
66
1
40
0.016000
41
0.016000
0
VERTEX
8
0
10
-3.550000
20
-1.450000
0
VERTEX
8
0
10
-3.550000
20
-1.850000
0
SEQEND
8
0
0
POLYLINE
8
0
66
1
40
0.016000
41
0.016000
0
VERTEX
8
0
10
-3.600000
20
-1.450000
0
VERTEX
8
0
10
-3.600000
20
-1.850000
0
SEQEND
8
0
0
POLYLINE
8
0
66
1
40
0.016000
41
0.016000
0
VERTEX
8
0
10
-3.800000
20
-2.000000
0
VERTEX
8
0
10
-3.800000
20
-1.900000
0
SEQEND
8
0
0
POLYLINE
8
0
66
1
40
0.016000
41
0.016000
0
VERTEX
8
0
10
-3.800000
20
-1.300000
0
VERTEX
8
0
10
-3.800000
20
-1.400000
0
SEQEND
8
0
0
POLYLINE
8
0
66
1
40
0.016000
41
0.016000
0
VERTEX
8
0
10
-3.300000
20
-1.500000
0
VERTEX
8
0
10
-3.400000
20
-1.500000
0
SEQEND
8
0
0
POLYLINE
8
0
66
1
40
0.016000
41
0.016000
0
VERTEX
8
0
10
-3.300000
20
-1.800000
0
VERTEX
8
0
10
-3.400000
20
-1.800000
0
SEQEND
8
0
0
TEXT
8
0
10
-3.391000
20
-1.277000
40
0.120000
41
0.666667
1
RL1
0
TEXT
8
0
10
-4.591000
20
-1.498000
40
0.080000
41
1.000000
1
PCJ-112D3MH
0
POLYLINE
8
0
66
1
40
0.016000
41
0.016000
0
VERTEX
8
0
10
-3.200000
20
-2.500000
0
VERTEX
8
0
10
-3.100000
20
-2.450000
0
VERTEX
8
0
10
-3.150000
20
-2.400000
0
VERTEX
8
0
10
-3.200000
20
-2.500000
0
SEQEND
8
0
0
POLYLINE
8
0
66
1
40
0.016000
41
0.016000
0
VERTEX
8
0
10
-3.050000
20
-2.450000
0
VERTEX
8
0
10
-3.000000
20
-2.450000
0
VERTEX
8
0
10
-3.000000
20
-2.150000
0
VERTEX
8
0
10
-3.050000
20
-2.150000
0
VERTEX
8
0
10
-3.050000
20
-2.450000
0
SEQEND
8
0
0
POLYLINE
8
0
66
1
40
0.016000
41
0.016000
0
VERTEX
8
0
10
-3.050000
20
-2.250000
0
VERTEX
8
0
10
-3.200000
20
-2.100000
0
SEQEND
8
0
0
POLYLINE
8
0
66
1
40
0.016000
41
0.016000
0
VERTEX
8
0
10
-3.050000
20
-2.350000
0
VERTEX
8
0
10
-3.120000
20
-2.420000
0
SEQEND
8
0
0
POLYLINE
8
0
66
1
40
0.016000
41
0.016000
0
VERTEX
8
0
10
-2.900000
20
-2.300000
0
VERTEX
8
0
10
-3.000000
20
-2.300000
0
SEQEND
8
0
0
POLYLINE
8
0
66
1
40
0.016000
41
0.016000
0
VERTEX
8
0
10
-3.200000
20
-2.000000
0
VERTEX
8
0
10
-3.200000
20
-2.100000
0
SEQEND
8
0
0
POLYLINE
8
0
66
1
40
0.016000
41
0.016000
0
VERTEX
8
0
10
-3.200000
20
-2.600000
0
VERTEX
8
0
10
-3.200000
20
-2.500000
0
SEQEND
8
0
0
TEXT
8
0
10
-2.991000
20
-1.977000
40
0.120000
41
0.666667
1
Q5
0
TEXT
8
0
10
-2.991000
20
-2.698000
40
0.080000
41
1.000000
1
BC849B
0
POLYLINE
8
0
66
1
40
0.016000
41
0.016000
0
VERTEX
8
0
10
-2.600000
20
-2.340000
0
VERTEX
8
0
10
-2.300000
20
-2.340000
0
VERTEX
8
0
10
-2.300000
20
-2.260000
0
VERTEX
8
0
10
-2.600000
20
-2.260000
0
VERTEX
8
0
10
-2.600000
20
-2.340000
0
SEQEND
8
0
0
POLYLINE
8
0
66
1
40
0.016000
41
0.016000
0
VERTEX
8
0
10
-2.200000
20
-2.300000
0
VERTEX
8
0
10
-2.300000
20
-2.300000
0
SEQEND
8
0
0
POLYLINE
8
0
66
1
40
0.016000
41
0.016000
0
VERTEX
8
0
10
-2.700000
20
-2.300000
0
VERTEX
8
0
10
-2.600000
20
-2.300000
0
SEQEND
8
0
0
TEXT
8
0
10
-2.608000
20
-2.237000
40
0.120000
41
0.666667
1
R10
0
TEXT
8
0
10
-2.608000
20
-2.438000
40
0.080000
41
1.000000
1
3.9M
0
POLYLINE
8
0
66
1
40
0.016000
41
0.016000
0
VERTEX
8
0
10
-3.200000
20
-2.800000
0
VERTEX
8
0
10
-3.200000
20
-2.900000
0
SEQEND
8
0
0
POLYLINE
8
0
66
1
40
0.016000
41
0.016000
0
VERTEX
8
0
10
-3.300000
20
-2.900000
0
VERTEX
8
0
10
-3.100000
20
-2.900000
0
SEQEND
8
0
0
POLYLINE
8
0
66
1
40
0.016000
41
0.016000
0
VERTEX
8
0
10
-3.250000
20
-2.950000
0
VERTEX
8
0
10
-3.150000
20
-2.950000
0
SEQEND
8
0
0
POLYLINE
8
0
66
1
40
0.016000
41
0.016000
0
VERTEX
8
0
10
-3.210000
20
-3.000000
0
VERTEX
8
0
10
-3.190000
20
-3.000000
0
SEQEND
8
0
0
POLYLINE
8
0
66
1
40
0.016000
41
0.016000
0
VERTEX
8
0
10
-4.500000
20
-1.800000
0
VERTEX
8
0
10
-4.700000
20
-1.800000
0
VERTEX
8
0
10
-4.600000
20
-1.900000
0
VERTEX
8
0
10
-4.500000
20
-1.800000
0
SEQEND
8
0
0
POLYLINE
8
0
66
1
40
0.016000
41
0.016000
0
VERTEX
8
0
10
-4.500000
20
-1.900000
0
VERTEX
8
0
10
-4.700000
20
-1.900000
0
SEQEND
8
0
0
POLYLINE
8
0
66
1
40
0.016000
41
0.016000
0
VERTEX
8
0
10
-4.600000
20
-1.700000
0
VERTEX
8
0
10
-4.600000
20
-1.800000
0
SEQEND
8
0
0
POLYLINE
8
0
66
1
40
0.016000
41
0.016000
0
VERTEX
8
0
10
-4.600000
20
-2.000000
0
VERTEX
8
0
10
-4.600000
20
-1.900000
0
SEQEND
8
0
0
TEXT
8
0
10
-4.442000
20
-1.927000
40
0.120000
41
0.666667
1
D1
0
TEXT
8
0
10
-4.442000
20
-2.032000
40
0.080000
41
1.000000
1
BAS16HT1_1
0
CIRCLE
8
16384
10
-3.800000
20
-1.100000
40
0.020000
0
CIRCLE
8
16384
10
-1.940000
20
-2.300000
40
0.040000
0
POLYLINE
8
0
66
1
40
0.016000
41
0.016000
0
VERTEX
8
0
10
-1.980000
20
-2.300000
0
VERTEX
8
0
10
-2.100000
20
-2.300000
0
SEQEND
8
0
0
TEXT
8
0
10
-1.850000
20
-2.340000
40
0.080000
41
1.000000
1
relay_sb
0
POLYLINE
8
0
66
1
40
0.016000
41
0.016000
0
VERTEX
8
0
10
-4.800000
20
-0.200000
0
VERTEX
8
0
10
-4.600000
20
-0.200000
0
VERTEX
8
0
10
-4.600000
20
0.100000
0
VERTEX
8
0
10
-4.800000
20
0.100000
0
VERTEX
8
0
10
-4.800000
20
-0.200000
0
SEQEND
8
0
0
POLYLINE
8
0
66
1
40
0.016000
41
0.016000
0
VERTEX
8
0
10
-4.670000
20
-0.100000
0
VERTEX
8
0
10
-4.600000
20
-0.100000
0
SEQEND
8
0
0
CIRCLE
8
128
10
-4.700000
20
0.000000
40
0.030000
0
POLYLINE
8
0
66
1
40
0.016000
41
0.016000
0
VERTEX
8
0
10
-4.670000
20
0.000000
0
VERTEX
8
0
10
-4.600000
20
0.000000
0
SEQEND
8
0
0
CIRCLE
8
128
10
-4.700000
20
-0.100000
40
0.030000
0
POLYLINE
8
0
66
1
40
0.016000
41
0.016000
0
VERTEX
8
0
10
-4.400000
20
-0.100000
0
VERTEX
8
0
10
-4.600000
20
-0.100000
0
SEQEND
8
0
0
TEXT
8
0
10
-4.500000
20
-0.090000
40
0.080000
41
1.000000
1
1
0
POLYLINE
8
0
66
1
40
0.016000
41
0.016000
0
VERTEX
8
0
10
-4.400000
20
0.000000
0
VERTEX
8
0
10
-4.600000
20
0.000000
0
SEQEND
8
0
0
TEXT
8
0
10
-4.500000
20
0.010000
40
0.080000
41
1.000000
1
2
0
TEXT
8
0
10
-4.808000
20
0.123000
40
0.120000
41
0.666667
1
J5
0
TEXT
8
0
10
-4.808000
20
-0.298000
40
0.080000
41
1.000000
1
SIL-100-02
0
POLYLINE
8
0
66
1
40
0.016000
41
0.016000
0
VERTEX
8
0
10
-4.200000
20
-0.600000
0
VERTEX
8
0
10
-4.200000
20
-0.700000
0
SEQEND
8
0
0
POLYLINE
8
0
66
1
40
0.016000
41
0.016000
0
VERTEX
8
0
10
-4.300000
20
-0.700000
0
VERTEX
8
0
10
-4.100000
20
-0.700000
0
SEQEND
8
0
0
POLYLINE
8
0
66
1
40
0.016000
41
0.016000
0
VERTEX
8
0
10
-4.250000
20
-0.750000
0
VERTEX
8
0
10
-4.150000
20
-0.750000
0
SEQEND
8
0
0
POLYLINE
8
0
66
1
40
0.016000
41
0.016000
0
VERTEX
8
0
10
-4.210000
20
-0.800000
0
VERTEX
8
0
10
-4.190000
20
-0.800000
0
SEQEND
8
0
0
CIRCLE
8
16384
10
-3.800000
20
-2.360000
40
0.040000
0
POLYLINE
8
0
66
1
40
0.016000
41
0.016000
0
VERTEX
8
0
10
-3.800000
20
-2.320000
0
VERTEX
8
0
10
-3.800000
20
-2.200000
0
SEQEND
8
0
0
TEXT
8
0
10
-3.760000
20
-2.690000
40
0.080000
41
1.000000
50
90.000000
1
12V
0
CIRCLE
8
16384
10
-3.800000
20
-2.100000
40
0.020000
0
POLYLINE
8
0
66
1
40
0.016000
41
0.016000
0
VERTEX
8
0
10
-0.100000
20
0.300000
0
VERTEX
8
0
10
0.700000
20
0.300000
0
VERTEX
8
0
10
0.700000
20
0.700000
0
VERTEX
8
0
10
-0.100000
20
0.700000
0
VERTEX
8
0
10
-0.100000
20
0.300000
0
SEQEND
8
0
0
POLYLINE
8
0
66
1
40
0.016000
41
0.016000
0
VERTEX
8
0
10
-0.300000
20
0.600000
0
VERTEX
8
0
10
-0.100000
20
0.600000
0
SEQEND
8
0
0
TEXT
8
0
10
-0.050000
20
0.560000
40
0.080000
41
1.000000
1
VI
0
TEXT
8
0
10
-0.280000
20
0.610000
40
0.080000
41
1.000000
1
1
0
POLYLINE
8
0
66
1
40
0.016000
41
0.016000
0
VERTEX
8
0
10
0.900000
20
0.600000
0
VERTEX
8
0
10
0.700000
20
0.600000
0
SEQEND
8
0
0
TEXT
8
0
10
0.490000
20
0.560000
40
0.080000
41
1.000000
1
VO
0
TEXT
8
0
10
0.800000
20
0.610000
40
0.080000
41
1.000000
1
3
0
POLYLINE
8
0
66
1
40
0.016000
41
0.016000
0
VERTEX
8
0
10
0.300000
20
0.100000
0
VERTEX
8
0
10
0.300000
20
0.300000
0
SEQEND
8
0
0
TEXT
8
0
10
0.340000
20
0.350000
40
0.080000
41
1.000000
50
90.000000
1
GND
0
TEXT
8
0
10
0.290000
20
0.120000
40
0.080000
41
1.000000
50
90.000000
1
2
0
TEXT
8
0
10
-0.108000
20
0.923000
40
0.120000
41
0.666667
1
U2
0
TEXT
8
0
10
-0.108000
20
0.818000
40
0.080000
41
1.000000
1
7805
0
CIRCLE
8
16384
10
-1.560000
20
0.600000
40
0.040000
0
POLYLINE
8
0
66
1
40
0.016000
41
0.016000
0
VERTEX
8
0
10
-1.520000
20
0.600000
0
VERTEX
8
0
10
-1.400000
20
0.600000
0
SEQEND
8
0
0
TEXT
8
0
10
-1.890000
20
0.560000
40
0.080000
41
1.000000
1
12V
0
POLYLINE
8
0
66
1
40
0.016000
41
0.016000
0
VERTEX
8
0
10
-0.980000
20
0.650000
0
VERTEX
8
0
10
-0.980000
20
0.700000
0
VERTEX
8
0
10
-0.820000
20
0.700000
0
VERTEX
8
0
10
-0.820000
20
0.650000
0
SEQEND
8
0
0
CIRCLE
8
128
10
-0.980000
20
0.600000
40
0.020000
0
CIRCLE
8
128
10
-0.820000
20
0.600000
40
0.020000
0
POLYLINE
8
0
66
1
40
0.016000
41
0.016000
0
VERTEX
8
0
10
-1.100000
20
0.600000
0
VERTEX
8
0
10
-1.000000
20
0.600000
0
SEQEND
8
0
0
POLYLINE
8
0
66
1
40
0.016000
41
0.016000
0
VERTEX
8
0
10
-0.700000
20
0.600000
0
VERTEX
8
0
10
-0.800000
20
0.600000
0
SEQEND
8
0
0
CIRCLE
8
255
10
-1.100000
20
0.700000
40
0.040000
0
POLYLINE
8
0
66
1
40
0.008000
41
0.008000
0
VERTEX
8
0
10
-1.100000
20
0.720000
0
VERTEX
8
0
10
-1.110000
20
0.710000
0
SEQEND
8
0
0
POLYLINE
8
0
66
1
40
0.008000
41
0.008000
0
VERTEX
8
0
10
-1.100000
20
0.720000
0
VERTEX
8
0
10
-1.090000
20
0.710000
0
SEQEND
8
0
0
POLYLINE
8
0
66
1
40
0.008000
41
0.008000
0
VERTEX
8
0
10
-1.100000
20
0.720000
0
VERTEX
8
0
10
-1.100000
20
0.680000
0
SEQEND
8
0
0
CIRCLE
8
255
10
-0.700000
20
0.700000
40
0.040000
0
POLYLINE
8
0
66
1
40
0.008000
41
0.008000
0
VERTEX
8
0
10
-0.700000
20
0.680000
0
VERTEX
8
0
10
-0.710000
20
0.690000
0
SEQEND
8
0
0
POLYLINE
8
0
66
1
40
0.008000
41
0.008000
0
VERTEX
8
0
10
-0.700000
20
0.680000
0
VERTEX
8
0
10
-0.690000
20
0.690000
0
SEQEND
8
0
0
POLYLINE
8
0
66
1
40
0.008000
41
0.008000
0
VERTEX
8
0
10
-0.700000
20
0.680000
0
VERTEX
8
0
10
-0.700000
20
0.720000
0
SEQEND
8
0
0
TEXT
8
0
10
-1.008000
20
0.723000
40
0.120000
41
0.666667
1
JP1
0
TEXT
8
0
10
-1.008000
20
0.482000
40
0.080000
41
1.000000
1
JUMPER
0
POLYLINE
8
0
66
1
40
0.016000
41
0.016000
0
VERTEX
8
0
10
-4.000000
20
0.050000
0
VERTEX
8
0
10
-3.700000
20
0.050000
0
VERTEX
8
0
10
-3.700000
20
-0.050000
0
VERTEX
8
0
10
-4.000000
20
-0.050000
0
VERTEX
8
0
10
-4.000000
20
0.050000
0
SEQEND
8
0
0
POLYLINE
8
0
66
1
40
0.016000
41
0.016000
0
VERTEX
8
0
10
-4.000000
20
0.000000
0
VERTEX
8
0
10
-3.700000
20
0.000000
0
SEQEND
8
0
0
POLYLINE
8
0
66
1
40
0.016000
41
0.016000
0
VERTEX
8
0
10
-3.600000
20
0.000000
0
VERTEX
8
0
10
-3.700000
20
0.000000
0
SEQEND
8
0
0
POLYLINE
8
0
66
1
40
0.016000
41
0.016000
0
VERTEX
8
0
10
-4.100000
20
0.000000
0
VERTEX
8
0
10
-4.000000
20
0.000000
0
SEQEND
8
0
0
TEXT
8
0
10
-4.008000
20
0.073000
40
0.120000
41
0.666667
1
FU1
0
TEXT
8
0
10
-4.008000
20
-0.148000
40
0.080000
41
1.000000
1
1A
0
POLYLINE
8
0
66
1
40
0.016000
41
0.016000
0
VERTEX
8
0
10
0.300000
20
-0.800000
0
VERTEX
8
0
10
0.300000
20
-0.900000
0
SEQEND
8
0
0
POLYLINE
8
0
66
1
40
0.016000
41
0.016000
0
VERTEX
8
0
10
0.200000
20
-0.900000
0
VERTEX
8
0
10
0.400000
20
-0.900000
0
SEQEND
8
0
0
POLYLINE
8
0
66
1
40
0.016000
41
0.016000
0
VERTEX
8
0
10
0.250000
20
-0.950000
0
VERTEX
8
0
10
0.350000
20
-0.950000
0
SEQEND
8
0
0
POLYLINE
8
0
66
1
40
0.016000
41
0.016000
0
VERTEX
8
0
10
0.290000
20
-1.000000
0
VERTEX
8
0
10
0.310000
20
-1.000000
0
SEQEND
8
0
0
POLYLINE
8
0
66
1
40
0.016000
41
0.016000
0
VERTEX
8
0
10
0.900000
20
-0.180000
0
VERTEX
8
0
10
1.100000
20
-0.180000
0
VERTEX
8
0
10
1.100000
20
-0.130000
0
VERTEX
8
0
10
0.900000
20
-0.130000
0
VERTEX
8
0
10
0.900000
20
-0.180000
0
SEQEND
8
0
0
POLYLINE
8
0
66
1
40
0.016000
41
0.016000
0
VERTEX
8
0
10
0.900000
20
-0.070000
0
VERTEX
8
0
10
1.100000
20
-0.070000
0
VERTEX
8
0
10
1.100000
20
-0.020000
0
VERTEX
8
0
10
0.900000
20
-0.020000
0
VERTEX
8
0
10
0.900000
20
-0.070000
0
SEQEND
8
0
0
POLYLINE
8
0
66
1
40
0.016000
41
0.016000
0
VERTEX
8
0
10
1.000000
20
-0.020000
0
VERTEX
8
0
10
1.000000
20
0.000000
0
SEQEND
8
0
0
POLYLINE
8
0
66
1
40
0.016000
41
0.016000
0
VERTEX
8
0
10
1.000000
20
-0.180000
0
VERTEX
8
0
10
1.000000
20
-0.200000
0
SEQEND
8
0
0
POLYLINE
8
0
66
1
40
0.016000
41
0.016000
0
VERTEX
8
0
10
0.950000
20
-0.070000
0
VERTEX
8
0
10
0.900000
20
-0.020000
0
SEQEND
8
0
0
POLYLINE
8
0
66
1
40
0.016000
41
0.016000
0
VERTEX
8
0
10
1.000000
20
-0.070000
0
VERTEX
8
0
10
0.950000
20
-0.020000
0
SEQEND
8
0
0
POLYLINE
8
0
66
1
40
0.016000
41
0.016000
0
VERTEX
8
0
10
1.050000
20
-0.070000
0
VERTEX
8
0
10
1.000000
20
-0.020000
0
SEQEND
8
0
0
POLYLINE
8
0
66
1
40
0.016000
41
0.016000
0
VERTEX
8
0
10
1.100000
20
-0.070000
0
VERTEX
8
0
10
1.050000
20
-0.020000
0
SEQEND
8
0
0
POLYLINE
8
0
66
1
40
0.016000
41
0.016000
0
VERTEX
8
0
10
1.000000
20
-0.300000
0
VERTEX
8
0
10
1.000000
20
-0.200000
0
SEQEND
8
0
0
POLYLINE
8
0
66
1
40
0.016000
41
0.016000
0
VERTEX
8
0
10
1.000000
20
0.100000
0
VERTEX
8
0
10
1.000000
20
0.000000
0
SEQEND
8
0
0
TEXT
8
0
10
1.158000
20
-0.127000
40
0.120000
41
0.666667
1
C7
0
TEXT
8
0
10
1.158000
20
-0.232000
40
0.080000
41
1.000000
1
10u
0
POLYLINE
8
0
66
1
40
0.016000
41
0.016000
0
VERTEX
8
0
10
1.500000
20
-0.180000
0
VERTEX
8
0
10
1.700000
20
-0.180000
0
VERTEX
8
0
10
1.700000
20
-0.130000
0
VERTEX
8
0
10
1.500000
20
-0.130000
0
VERTEX
8
0
10
1.500000
20
-0.180000
0
SEQEND
8
0
0
POLYLINE
8
0
66
1
40
0.016000
41
0.016000
0
VERTEX
8
0
10
1.500000
20
-0.070000
0
VERTEX
8
0
10
1.700000
20
-0.070000
0
VERTEX
8
0
10
1.700000
20
-0.020000
0
VERTEX
8
0
10
1.500000
20
-0.020000
0
VERTEX
8
0
10
1.500000
20
-0.070000
0
SEQEND
8
0
0
POLYLINE
8
0
66
1
40
0.016000
41
0.016000
0
VERTEX
8
0
10
1.600000
20
-0.020000
0
VERTEX
8
0
10
1.600000
20
0.000000
0
SEQEND
8
0
0
POLYLINE
8
0
66
1
40
0.016000
41
0.016000
0
VERTEX
8
0
10
1.600000
20
-0.180000
0
VERTEX
8
0
10
1.600000
20
-0.200000
0
SEQEND
8
0
0
POLYLINE
8
0
66
1
40
0.016000
41
0.016000
0
VERTEX
8
0
10
1.550000
20
-0.070000
0
VERTEX
8
0
10
1.500000
20
-0.020000
0
SEQEND
8
0
0
POLYLINE
8
0
66
1
40
0.016000
41
0.016000
0
VERTEX
8
0
10
1.600000
20
-0.070000
0
VERTEX
8
0
10
1.550000
20
-0.020000
0
SEQEND
8
0
0
POLYLINE
8
0
66
1
40
0.016000
41
0.016000
0
VERTEX
8
0
10
1.650000
20
-0.070000
0
VERTEX
8
0
10
1.600000
20
-0.020000
0
SEQEND
8
0
0
POLYLINE
8
0
66
1
40
0.016000
41
0.016000
0
VERTEX
8
0
10
1.700000
20
-0.070000
0
VERTEX
8
0
10
1.650000
20
-0.020000
0
SEQEND
8
0
0
POLYLINE
8
0
66
1
40
0.016000
41
0.016000
0
VERTEX
8
0
10
1.600000
20
-0.300000
0
VERTEX
8
0
10
1.600000
20
-0.200000
0
SEQEND
8
0
0
POLYLINE
8
0
66
1
40
0.016000
41
0.016000
0
VERTEX
8
0
10
1.600000
20
0.100000
0
VERTEX
8
0
10
1.600000
20
0.000000
0
SEQEND
8
0
0
TEXT
8
0
10
1.758000
20
-0.127000
40
0.120000
41
0.666667
1
C8
0
TEXT
8
0
10
1.758000
20
-0.232000
40
0.080000
41
1.000000
1
10u
0
CIRCLE
8
16384
10
1.000000
20
0.600000
40
0.020000
0
CIRCLE
8
16384
10
0.300000
20
-0.400000
40
0.020000
0
CIRCLE
8
16384
10
1.000000
20
-0.400000
40
0.020000
0
POLYLINE
8
0
66
1
40
0.016000
41
0.016000
0
VERTEX
8
0
10
-0.600000
20
-0.180000
0
VERTEX
8
0
10
-0.400000
20
-0.180000
0
VERTEX
8
0
10
-0.400000
20
-0.130000
0
VERTEX
8
0
10
-0.600000
20
-0.130000
0
VERTEX
8
0
10
-0.600000
20
-0.180000
0
SEQEND
8
0
0
POLYLINE
8
0
66
1
40
0.016000
41
0.016000
0
VERTEX
8
0
10
-0.600000
20
-0.070000
0
VERTEX
8
0
10
-0.400000
20
-0.070000
0
VERTEX
8
0
10
-0.400000
20
-0.020000
0
VERTEX
8
0
10
-0.600000
20
-0.020000
0
VERTEX
8
0
10
-0.600000
20
-0.070000
0
SEQEND
8
0
0
POLYLINE
8
0
66
1
40
0.016000
41
0.016000
0
VERTEX
8
0
10
-0.500000
20
-0.020000
0
VERTEX
8
0
10
-0.500000
20
0.000000
0
SEQEND
8
0
0
POLYLINE
8
0
66
1
40
0.016000
41
0.016000
0
VERTEX
8
0
10
-0.500000
20
-0.180000
0
VERTEX
8
0
10
-0.500000
20
-0.200000
0
SEQEND
8
0
0
POLYLINE
8
0
66
1
40
0.016000
41
0.016000
0
VERTEX
8
0
10
-0.550000
20
-0.070000
0
VERTEX
8
0
10
-0.600000
20
-0.020000
0
SEQEND
8
0
0
POLYLINE
8
0
66
1
40
0.016000
41
0.016000
0
VERTEX
8
0
10
-0.500000
20
-0.070000
0
VERTEX
8
0
10
-0.550000
20
-0.020000
0
SEQEND
8
0
0
POLYLINE
8
0
66
1
40
0.016000
41
0.016000
0
VERTEX
8
0
10
-0.450000
20
-0.070000
0
VERTEX
8
0
10
-0.500000
20
-0.020000
0
SEQEND
8
0
0
POLYLINE
8
0
66
1
40
0.016000
41
0.016000
0
VERTEX
8
0
10
-0.400000
20
-0.070000
0
VERTEX
8
0
10
-0.450000
20
-0.020000
0
SEQEND
8
0
0
POLYLINE
8
0
66
1
40
0.016000
41
0.016000
0
VERTEX
8
0
10
-0.500000
20
-0.300000
0
VERTEX
8
0
10
-0.500000
20
-0.200000
0
SEQEND
8
0
0
POLYLINE
8
0
66
1
40
0.016000
41
0.016000
0
VERTEX
8
0
10
-0.500000
20
0.100000
0
VERTEX
8
0
10
-0.500000
20
0.000000
0
SEQEND
8
0
0
TEXT
8
0
10
-0.342000
20
-0.127000
40
0.120000
41
0.666667
1
C9
0
TEXT
8
0
10
-0.342000
20
-0.232000
40
0.080000
41
1.000000
1
10u
0
CIRCLE
8
16384
10
-0.500000
20
0.600000
40
0.020000
0
POLYLINE
8
0
66
1
40
0.016000
41
0.016000
0
VERTEX
8
0
10
2.650000
20
0.900000
0
VERTEX
8
0
10
2.700000
20
1.000000
0
VERTEX
8
0
10
2.750000
20
0.900000
0
VERTEX
8
0
10
2.650000
20
0.900000
0
SEQEND
8
0
0
POLYLINE
8
0
66
1
40
0.016000
41
0.016000
0
VERTEX
8
0
10
2.700000
20
0.800000
0
VERTEX
8
0
10
2.700000
20
1.000000
0
SEQEND
8
0
0
CIRCLE
8
16384
10
1.600000
20
0.600000
40
0.020000
0
POLYLINE
8
0
66
1
40
0.016000
41
0.016000
0
VERTEX
8
0
10
3.000000
20
0.700000
0
VERTEX
8
0
10
5.000000
20
0.700000
0
VERTEX
8
0
10
5.000000
20
1.500000
0
VERTEX
8
0
10
3.000000
20
1.500000
0
VERTEX
8
0
10
3.000000
20
0.700000
0
SEQEND
8
0
0
POLYLINE
8
0
66
1
40
0.010000
41
0.010000
0
VERTEX
8
0
10
3.100000
20
0.980000
0
VERTEX
8
0
10
4.900000
20
0.980000
0
VERTEX
8
0
10
4.900000
20
1.420000
0
VERTEX
8
0
10
3.100000
20
1.420000
0
VERTEX
8
0
10
3.100000
20
0.980000
0
SEQEND
8
0
0
POLYLINE
8
0
66
1
40
0.016000
41
0.016000
0
VERTEX
8
0
10
4.700000
20
0.500000
0
VERTEX
8
0
10
4.700000
20
0.700000
0
SEQEND
8
0
0
TEXT
8
0
10
4.740000
20
0.750000
40
0.080000
41
1.000000
50
90.000000
1
D7
0
TEXT
8
0
10
4.690000
20
0.440000
40
0.080000
41
1.000000
50
90.000000
1
14
0
POLYLINE
8
0
66
1
40
0.016000
41
0.016000
0
VERTEX
8
0
10
4.600000
20
0.500000
0
VERTEX
8
0
10
4.600000
20
0.700000
0
SEQEND
8
0
0
TEXT
8
0
10
4.640000
20
0.750000
40
0.080000
41
1.000000
50
90.000000
1
D6
0
TEXT
8
0
10
4.590000
20
0.440000
40
0.080000
41
1.000000
50
90.000000
1
13
0
POLYLINE
8
0
66
1
40
0.016000
41
0.016000
0
VERTEX
8
0
10
4.500000
20
0.500000
0
VERTEX
8
0
10
4.500000
20
0.700000
0
SEQEND
8
0
0
TEXT
8
0
10
4.540000
20
0.750000
40
0.080000
41
1.000000
50
90.000000
1
D5
0
TEXT
8
0
10
4.490000
20
0.440000
40
0.080000
41
1.000000
50
90.000000
1
12
0
POLYLINE
8
0
66
1
40
0.016000
41
0.016000
0
VERTEX
8
0
10
4.400000
20
0.500000
0
VERTEX
8
0
10
4.400000
20
0.700000
0
SEQEND
8
0
0
TEXT
8
0
10
4.440000
20
0.750000
40
0.080000
41
1.000000
50
90.000000
1
D4
0
TEXT
8
0
10
4.390000
20
0.440000
40
0.080000
41
1.000000
50
90.000000
1
11
0
POLYLINE
8
0
66
1
40
0.016000
41
0.016000
0
VERTEX
8
0
10
4.300000
20
0.500000
0
VERTEX
8
0
10
4.300000
20
0.700000
0
SEQEND
8
0
0
TEXT
8
0
10
4.340000
20
0.750000
40
0.080000
41
1.000000
50
90.000000
1
D3
0
TEXT
8
0
10
4.290000
20
0.440000
40
0.080000
41
1.000000
50
90.000000
1
10
0
POLYLINE
8
0
66
1
40
0.016000
41
0.016000
0
VERTEX
8
0
10
4.200000
20
0.500000
0
VERTEX
8
0
10
4.200000
20
0.700000
0
SEQEND
8
0
0
TEXT
8
0
10
4.240000
20
0.750000
40
0.080000
41
1.000000
50
90.000000
1
D2
0
TEXT
8
0
10
4.190000
20
0.520000
40
0.080000
41
1.000000
50
90.000000
1
9
0
POLYLINE
8
0
66
1
40
0.016000
41
0.016000
0
VERTEX
8
0
10
4.100000
20
0.500000
0
VERTEX
8
0
10
4.100000
20
0.700000
0
SEQEND
8
0
0
TEXT
8
0
10
4.140000
20
0.750000
40
0.080000
41
1.000000
50
90.000000
1
D1
0
TEXT
8
0
10
4.090000
20
0.520000
40
0.080000
41
1.000000
50
90.000000
1
8
0
POLYLINE
8
0
66
1
40
0.016000
41
0.016000
0
VERTEX
8
0
10
4.000000
20
0.500000
0
VERTEX
8
0
10
4.000000
20
0.700000
0
SEQEND
8
0
0
TEXT
8
0
10
4.040000
20
0.750000
40
0.080000
41
1.000000
50
90.000000
1
D0
0
TEXT
8
0
10
3.990000
20
0.520000
40
0.080000
41
1.000000
50
90.000000
1
7
0
POLYLINE
8
0
66
1
40
0.016000
41
0.016000
0
VERTEX
8
0
10
3.800000
20
0.500000
0
VERTEX
8
0
10
3.800000
20
0.700000
0
SEQEND
8
0
0
TEXT
8
0
10
3.840000
20
0.750000
40
0.080000
41
1.000000
50
90.000000
1
E
0
TEXT
8
0
10
3.790000
20
0.520000
40
0.080000
41
1.000000
50
90.000000
1
6
0
POLYLINE
8
0
66
1
40
0.016000
41
0.016000
0
VERTEX
8
0
10
3.700000
20
0.500000
0
VERTEX
8
0
10
3.700000
20
0.700000
0
SEQEND
8
0
0
TEXT
8
0
10
3.740000
20
0.750000
40
0.080000
41
1.000000
50
90.000000
1
RW
0
TEXT
8
0
10
3.690000
20
0.520000
40
0.080000
41
1.000000
50
90.000000
1
5
0
POLYLINE
8
0
66
1
40
0.016000
41
0.016000
0
VERTEX
8
0
10
3.600000
20
0.500000
0
VERTEX
8
0
10
3.600000
20
0.700000
0
SEQEND
8
0
0
TEXT
8
0
10
3.640000
20
0.750000
40
0.080000
41
1.000000
50
90.000000
1
RS
0
TEXT
8
0
10
3.590000
20
0.520000
40
0.080000
41
1.000000
50
90.000000
1
4
0
POLYLINE
8
0
66
1
40
0.016000
41
0.016000
0
VERTEX
8
0
10
3.200000
20
0.500000
0
VERTEX
8
0
10
3.200000
20
0.700000
0
SEQEND
8
0
0
TEXT
8
0
10
3.240000
20
0.750000
40
0.080000
41
1.000000
50
90.000000
1
VSS
0
TEXT
8
0
10
3.190000
20
0.520000
40
0.080000
41
1.000000
50
90.000000
1
1
0
POLYLINE
8
0
66
1
40
0.016000
41
0.016000
0
VERTEX
8
0
10
3.300000
20
0.500000
0
VERTEX
8
0
10
3.300000
20
0.700000
0
SEQEND
8
0
0
TEXT
8
0
10
3.340000
20
0.750000
40
0.080000
41
1.000000
50
90.000000
1
VDD
0
TEXT
8
0
10
3.290000
20
0.520000
40
0.080000
41
1.000000
50
90.000000
1
2
0
POLYLINE
8
0
66
1
40
0.016000
41
0.016000
0
VERTEX
8
0
10
3.400000
20
0.500000
0
VERTEX
8
0
10
3.400000
20
0.700000
0
SEQEND
8
0
0
TEXT
8
0
10
3.440000
20
0.750000
40
0.080000
41
1.000000
50
90.000000
1
VEE
0
TEXT
8
0
10
3.390000
20
0.520000
40
0.080000
41
1.000000
50
90.000000
1
3
0
TEXT
8
0
10
2.992000
20
1.723000
40
0.120000
41
0.666667
1
LCD1
0
TEXT
8
0
10
2.992000
20
1.618000
40
0.080000
41
1.000000
1
LM016L
0
CIRCLE
8
16384
10
0.060000
20
2.700000
40
0.040000
0
POLYLINE
8
0
66
1
40
0.016000
41
0.016000
0
VERTEX
8
0
10
0.020000
20
2.700000
0
VERTEX
8
0
10
-0.100000
20
2.700000
0
SEQEND
8
0
0
TEXT
8
0
10
0.150000
20
2.660000
40
0.080000
41
1.000000
1
LCD_RW
0
CIRCLE
8
16384
10
3.600000
20
0.240000
40
0.040000
0
POLYLINE
8
0
66
1
40
0.016000
41
0.016000
0
VERTEX
8
0
10
3.600000
20
0.280000
0
VERTEX
8
0
10
3.600000
20
0.400000
0
SEQEND
8
0
0
TEXT
8
0
10
3.640000
20
-0.330000
40
0.080000
41
1.000000
50
90.000000
1
LCD_RS
0
CIRCLE
8
16384
10
-2.660000
20
2.500000
40
0.040000
0
POLYLINE
8
0
66
1
40
0.016000
41
0.016000
0
VERTEX
8
0
10
-2.620000
20
2.500000
0
VERTEX
8
0
10
-2.500000
20
2.500000
0
SEQEND
8
0
0
TEXT
8
0
10
-3.230000
20
2.460000
40
0.080000
41
1.000000
1
LCD_RS
0
CIRCLE
8
16384
10
3.700000
20
0.240000
40
0.040000
0
POLYLINE
8
0
66
1
40
0.016000
41
0.016000
0
VERTEX
8
0
10
3.700000
20
0.280000
0
VERTEX
8
0
10
3.700000
20
0.400000
0
SEQEND
8
0
0
TEXT
8
0
10
3.740000
20
-0.330000
40
0.080000
41
1.000000
50
90.000000
1
LCD_RW
0
CIRCLE
8
16384
10
0.060000
20
2.600000
40
0.040000
0
POLYLINE
8
0
66
1
40
0.016000
41
0.016000
0
VERTEX
8
0
10
0.020000
20
2.600000
0
VERTEX
8
0
10
-0.100000
20
2.600000
0
SEQEND
8
0
0
TEXT
8
0
10
0.150000
20
2.560000
40
0.080000
41
1.000000
1
LCD_E
0
CIRCLE
8
16384
10
3.800000
20
0.240000
40
0.040000
0
POLYLINE
8
0
66
1
40
0.016000
41
0.016000
0
VERTEX
8
0
10
3.800000
20
0.280000
0
VERTEX
8
0
10
3.800000
20
0.400000
0
SEQEND
8
0
0
TEXT
8
0
10
3.840000
20
-0.250000
40
0.080000
41
1.000000
50
90.000000
1
LCD_E
0
CIRCLE
8
16384
10
-1.860000
20
1.800000
40
0.040000
0
POLYLINE
8
0
66
1
40
0.016000
41
0.016000
0
VERTEX
8
0
10
-1.820000
20
1.800000
0
VERTEX
8
0
10
-1.700000
20
1.800000
0
SEQEND
8
0
0
TEXT
8
0
10
-2.510000
20
1.760000
40
0.080000
41
1.000000
1
LCD_DB7
0
CIRCLE
8
16384
10
4.700000
20
0.240000
40
0.040000
0
POLYLINE
8
0
66
1
40
0.016000
41
0.016000
0
VERTEX
8
0
10
4.700000
20
0.280000
0
VERTEX
8
0
10
4.700000
20
0.400000
0
SEQEND
8
0
0
TEXT
8
0
10
4.740000
20
-0.410000
40
0.080000
41
1.000000
50
90.000000
1
LCD_DB7
0
CIRCLE
8
16384
10
4.600000
20
0.240000
40
0.040000
0
POLYLINE
8
0
66
1
40
0.016000
41
0.016000
0
VERTEX
8
0
10
4.600000
20
0.280000
0
VERTEX
8
0
10
4.600000
20
0.400000
0
SEQEND
8
0
0
TEXT
8
0
10
4.640000
20
-0.410000
40
0.080000
41
1.000000
50
90.000000
1
LCD_DB6
0
CIRCLE
8
16384
10
4.500000
20
0.240000
40
0.040000
0
POLYLINE
8
0
66
1
40
0.016000
41
0.016000
0
VERTEX
8
0
10
4.500000
20
0.280000
0
VERTEX
8
0
10
4.500000
20
0.400000
0
SEQEND
8
0
0
TEXT
8
0
10
4.540000
20
-0.410000
40
0.080000
41
1.000000
50
90.000000
1
LCD_DB5
0
CIRCLE
8
16384
10
4.400000
20
0.240000
40
0.040000
0
POLYLINE
8
0
66
1
40
0.016000
41
0.016000
0
VERTEX
8
0
10
4.400000
20
0.280000
0
VERTEX
8
0
10
4.400000
20
0.400000
0
SEQEND
8
0
0
TEXT
8
0
10
4.440000
20
-0.410000
40
0.080000
41
1.000000
50
90.000000
1
LCD_DB4
0
CIRCLE
8
16384
10
0.060000
20
2.500000
40
0.040000
0
POLYLINE
8
0
66
1
40
0.016000
41
0.016000
0
VERTEX
8
0
10
0.020000
20
2.500000
0
VERTEX
8
0
10
-0.100000
20
2.500000
0
SEQEND
8
0
0
TEXT
8
0
10
0.150000
20
2.460000
40
0.080000
41
1.000000
1
LCD_DB4
0
CIRCLE
8
16384
10
-1.860000
20
2.000000
40
0.040000
0
POLYLINE
8
0
66
1
40
0.016000
41
0.016000
0
VERTEX
8
0
10
-1.820000
20
2.000000
0
VERTEX
8
0
10
-1.700000
20
2.000000
0
SEQEND
8
0
0
TEXT
8
0
10
-2.510000
20
1.960000
40
0.080000
41
1.000000
1
LCD_DB5
0
CIRCLE
8
16384
10
-1.860000
20
1.900000
40
0.040000
0
POLYLINE
8
0
66
1
40
0.016000
41
0.016000
0
VERTEX
8
0
10
-1.820000
20
1.900000
0
VERTEX
8
0
10
-1.700000
20
1.900000
0
SEQEND
8
0
0
TEXT
8
0
10
-2.510000
20
1.860000
40
0.080000
41
1.000000
1
LCD_DB6
0
ENDSEC
0
EOF

